<?xml version="1.0" encoding="utf-8"?>
<svg version="1.1" xmlns:xlink="http://www.w3.org/1999/xlink" width="20px" height="20px" xmlns="http://www.w3.org/2000/svg">
  <defs>
    <mask fill="white" id="clip1443">
      <path d="M 10 0  C 15.5228476524353 0  20 4.4771523475647  20 10  C 20 15.5228476524353  15.5228476524353 20  10 20  C 4.4771523475647 20  0 15.5228476524353  0 10  C 0 4.4771523475647  4.4771523475647 0  10 0  Z " fill-rule="evenodd" />
    </mask>
  </defs>
  <g transform="matrix(1 0 0 1 -27 0 )">
    <path d="M 10 0  C 15.5228476524353 0  20 4.4771523475647  20 10  C 20 15.5228476524353  15.5228476524353 20  10 20  C 4.4771523475647 20  0 15.5228476524353  0 10  C 0 4.4771523475647  4.4771523475647 0  10 0  Z " fill-rule="nonzero" fill="#2c7ef8" stroke="none" transform="matrix(1 0 0 1 27 0 )" />
    <path d="M 10 0  C 15.5228476524353 0  20 4.4771523475647  20 10  C 20 15.5228476524353  15.5228476524353 20  10 20  C 4.4771523475647 20  0 15.5228476524353  0 10  C 0 4.4771523475647  4.4771523475647 0  10 0  Z " stroke-width="4" stroke="#2c7ef8" fill="none" transform="matrix(1 0 0 1 27 0 )" mask="url(#clip1443)" />
  </g>
</svg>