<?xml version="1.0" encoding="utf-8"?>
<svg version="1.1" xmlns:xlink="http://www.w3.org/1999/xlink" width="24px" height="24px" xmlns="http://www.w3.org/2000/svg">
  <defs>
    <mask fill="white" id="clip1446">
      <path d="M 12 0  C 18.6274170875549 0  24 5.37258291244507  24 12  C 24 18.6274170875549  18.6274170875549 24  12 24  C 5.37258291244507 24  0 18.6274170875549  0 12  C 0 5.37258291244507  5.37258291244507 0  12 0  Z " fill-rule="evenodd" />
    </mask>
  </defs>
  <g>
    <path d="M 12 0  C 18.6274170875549 0  24 5.37258291244507  24 12  C 24 18.6274170875549  18.6274170875549 24  12 24  C 5.37258291244507 24  0 18.6274170875549  0 12  C 0 5.37258291244507  5.37258291244507 0  12 0  Z " fill-rule="nonzero" fill="#2c7ef8" stroke="none" />
    <path d="M 12 0  C 18.6274170875549 0  24 5.37258291244507  24 12  C 24 18.6274170875549  18.6274170875549 24  12 24  C 5.37258291244507 24  0 18.6274170875549  0 12  C 0 5.37258291244507  5.37258291244507 0  12 0  Z " stroke-width="4" stroke="#2c7ef8" fill="none" mask="url(#clip1446)" />
  </g>
</svg>