<?xml version="1.0" encoding="utf-8"?>
<svg version="1.1" xmlns:xlink="http://www.w3.org/1999/xlink" width="4px" height="4px" xmlns="http://www.w3.org/2000/svg">
  <g transform="matrix(1 0 0 1 -38 -3 )">
    <path d="M 4 2.08913598522469  C 4 2.08913598522469  3.9519057378882 2.18198682765341  3.9519057378882 2.18198682765341  C 3.9519057378882 2.18198682765341  1.25858681136776 2.18198682765341  1.25858681136776 2.18198682765341  C 1.25858681136776 2.73908977918394  1.54715542272483 3.01764086754678  2.07620039000678 3.01764086754678  C 2.31667536992279 3.01764086754678  2.55715181184822 2.92479179610058  2.70143680553119 2.69266557552006  C 2.70143680553119 2.69266557552006  3.9038114757764 2.69266557552006  3.9038114757764 2.69266557552006  C 3.80762148237665 3.11049276149636  3.56714599362403 3.43546877298472  3.230481027475 3.66759499356525  C 2.89381606132596 3.89972121414577  2.50905534238885 3.99257205657448  2.07620039000678 3.99257205657448  C 1.01811045544288 4.08542254619027  0.0562126526466843 3.29619306277369  0.00811765594681221 2.27483767008212  C 0.00811765594681221 2.27483767008212  0.00811765594681221 1.9962869137785  0.00811765594681221 1.9962869137785  C -0.0880723374529319 0.974931521086923  0.681446836635869 0.0928504896157887  1.73953677119977 0  C 1.73953677119977 0  2.02810612789498 0  2.02810612789498 0  C 3.27857597759124 0  4 0.835654371952596  4 2.08913598522469  Z M 1.30668107347956 1.39275732348313  C 1.30668107347956 1.39275732348313  2.79762532975479 1.39275732348313  2.79762532975479 1.39275732348313  C 2.74953033305492 1.06778062020472  2.41286535615582 0.789229504170276  2.07620039000678 0.789229504170276  C 1.6914404164078 0.789229504170276  1.40287106687931 1.02135536501997  1.30668107347956 1.39275732348313  Z " fill-rule="nonzero" fill="#000000" stroke="none" transform="matrix(1 0 0 1 38 3 )" />
  </g>
</svg>