<?xml version="1.0" encoding="utf-8"?>
<svg version="1.1" xmlns:xlink="http://www.w3.org/1999/xlink" width="4px" height="5px" xmlns="http://www.w3.org/2000/svg">
  <g transform="matrix(1 0 0 1 -25 -8 )">
    <path d="M 4 0.213675269408989  C 4 0.213675269408989  3.95402367393184 0.940171511442138  3.95402367393184 0.940171511442138  C 3.63218448605925 0.769231293367739  3.26436754708741 0.683760210023592  2.85057430945186 0.683760210023592  C 1.74712560267853 0.683760210023592  0.827584392533363 1.49572749719277  0.827584392533363 2.52136883111124  C 0.827584392533363 3.54701016502972  1.70114927661037 4.40171185399552  2.8045979833837 4.40171185399552  C 3.21839122101925 4.40171185399552  3.58620744747555 4.31623914043844  3.95402367393184 4.14529892236404  C 3.95402367393184 4.14529892236404  4 4.78632473059101  4 4.78632473059101  C 3.63218377354371 4.91452989733082  3.21839122101925 5  2.8045979833837 5  C 1.14942503284149 5  0 4.01709632830402  0 2.47863442931462  C 0 1.02564255657817  1.1954020166163 0  2.8045979833837 0  C 3.21839122101925 0  3.63218377354371 0.0427350513345901  4 0.213675269408989  Z " fill-rule="nonzero" fill="#000000" stroke="none" transform="matrix(1 0 0 1 25 8 )" />
  </g>
</svg>