<?xml version="1.0" encoding="utf-8"?>
<svg version="1.1" xmlns:xlink="http://www.w3.org/1999/xlink" width="4px" height="4px" xmlns="http://www.w3.org/2000/svg">
  <g transform="matrix(1 0 0 1 -34 -3 )">
    <path d="M 3.95190578200691 2.08913598522469  C 3.95190578200691 2.08913598522469  4 2.18198682765341  4 2.18198682765341  C 4 2.18198682765341  1.30668354416445 2.18198682765341  1.30668354416445 2.18198682765341  C 1.30668354416445 2.73908977918394  1.59525263614391 3.01764086754678  2.07620215478205 3.01764086754678  C 2.31667691410112 3.01764086754678  2.55714946607465 2.92479179610058  2.70143432739945 2.69266557552006  C 2.70143432739945 2.69266557552006  3.9038078946602 2.69266557552006  3.9038078946602 2.69266557552006  C 3.80761798949923 3.11049276149636  3.56714639069764 3.43546877298472  3.23048173338431 3.66759499356525  C 2.89381707607098 3.89972121414577  2.50905671008964 3.99257205657448  2.07620215478205 3.99257205657448  C 1.01811319084469 4.08542254619027  0.104307553661143 3.29619306277369  0.00811764850017464 2.27483767008212  C 0.00811764850017464 2.27483767008212  0.00811764850017464 1.9962869137785  0.00811764850017464 1.9962869137785  C -0.0880722566607942 0.974931521086923  0.681446211518514 0.0928504896157887  1.73953517545588 0  C 1.73953517545588 0  1.98001004944225 0  1.98001004944225 0  C 3.23047875203448 0  3.95190578200691 0.835654371952596  3.95190578200691 2.08913598522469  Z M 1.35477776215754 1.39275732348313  C 1.35477776215754 1.39275732348313  2.84572065073235 1.39275732348313  2.84572065073235 1.39275732348313  C 2.79762569815186 1.06778062020472  2.46096103008847 0.789229504170276  2.12429637277514 0.789229504170276  C 1.73953675213126 0.789229504170276  1.45096766731851 1.02135536501997  1.35477776215754 1.39275732348313  Z " fill-rule="nonzero" fill="#000000" stroke="none" transform="matrix(1 0 0 1 34 3 )" />
  </g>
</svg>