<?xml version="1.0" encoding="utf-8"?>
<svg version="1.1" xmlns:xlink="http://www.w3.org/1999/xlink" width="3px" height="5px" xmlns="http://www.w3.org/2000/svg">
  <g transform="matrix(1 0 0 1 -31 -1 )">
    <path d="M 0.725806808868806 5  L 0.725806808868806 2.49999921829979  L 0 2.49999921829979  L 0 1.68032713841128  L 0.774193191131194 1.68032713841128  C 0.774193191131194 1.68032713841128  0.774193191131194 1.3114756405017  0.774193191131194 1.3114756405017  C 0.774193191131194 0.327869105550478  1.30645008712281 0  2.32257957339358 0  C 2.56451517634985 0  2.7580651324885 0.0409829786342572  2.95161361773761 0.0409829786342572  C 2.95161361773761 0.0409829786342572  2.90322723547523 0.819672079888511  2.90322723547523 0.819672079888511  C 2.75806586793327 0.778688475283382  2.66129016162942 0.778687537853833  2.51612879408746 0.778687537853833  C 2.17741895571688 0.778687537853833  2.08064397043731 0.983606803660671  2.08064397043731 1.3114756405017  C 2.08064397043731 1.3114756405017  2.08064397043731 1.68032713841128  2.08064397043731 1.68032713841128  L 3 1.68032713841128  L 3 2.49999921829979  L 2.03225758817492 2.49999921829979  L 2.03225758817492 5  L 0.725806808868806 5  Z " fill-rule="nonzero" fill="#000000" stroke="none" transform="matrix(1 0 0 1 31 1 )" />
  </g>
</svg>