<?xml version="1.0" encoding="utf-8"?>
<svg version="1.1" xmlns:xlink="http://www.w3.org/1999/xlink" width="14px" height="15px" xmlns="http://www.w3.org/2000/svg">
  <defs>
    <linearGradient gradientUnits="userSpaceOnUse" x1="11.3321902474629" y1="2.64031413343289" x2="0.0384865876197908" y2="9.9405602700204" id="LinearGradient1421">
      <stop id="Stop1422" stop-color="#4b4b4d" offset="0" />
      <stop id="Stop1423" stop-color="#4d4d4f" offset="0.01" />
      <stop id="Stop1424" stop-color="#67686a" offset="0.25" />
      <stop id="Stop1425" stop-color="#797a7c" offset="0.5" />
      <stop id="Stop1426" stop-color="#838486" offset="0.74" />
      <stop id="Stop1427" stop-color="#87888a" offset="1" />
    </linearGradient>
  </defs>
  <g transform="matrix(1 0 0 1 -1 -1 )">
    <path d="M 7.01630101778944 0  C 4.71326715016233 0.0451807277178428  2.41023354153808 0.361445148497446  0.150653307309516 0.948794578533364  C 0.150653307309516 0.948794578533364  0.0637468693215475 0.948794578533364  0.0637468693215475 0.948794578533364  C 0.0637468693215475 0.948794578533364  0.0637468693215475 1.03915637732415  0.0637468693215475 1.03915637732415  C -0.370787807045659 6.82228952520803  1.49771071080683 10.3012058523436  3.19239599007939 12.1987963020413  C 4.23527925480114 13.4186759537893  5.53888380190846 14.3674705323227  6.97284821320002 14.9548199623586  C 6.97284821320002 14.9548199623586  7.01630101778944 15  7.01630101778944 15  C 7.01630101778944 15  7.05975547999711 15  7.05975547999711 15  C 8.49371989128866 14.4126505699641  9.7973242311937 13.4638559914307  10.8402074959155 12.2439763396827  C 12.4914392453906 10.346385889985  14.4033903606302 6.86747042460342  13.9254022062662 1.12951817611494  C 13.9254022062662 1.12951817611494  13.9254022062662 0.993976339682737  13.9254022062662 0.993976339682737  C 13.9254022062662 0.993976339682737  13.8384957682782 0.993976339682737  13.8384957682782 0.993976339682737  C 11.6223689602459 0.361446171830296  9.31933488541655 0.0451807277178428  7.01630101778944 0  Z M 0.281014207505151 1.08433813847352  C 0.802455839866026 1.03915741075568  3.97455869762356 0.0903617987907868  7.10320828458653 0.0903617987907868  C 9.31933509261883 0.13554252650863  11.5789151196451 0.496988708437606  13.7515885014811 1.08433813847352  C 13.7950419697654 1.62650688455254  13.7950429636888 2.30421741320414  13.7950429636888 2.80120542146664  C 13.7950429636888 7.45482039323558  12.1438109034102 10.3915658199072  10.6663929623213 12.0632527421012  C 9.66696322739693 13.237951602173  8.40681262449157 14.1867469347411  6.97284821320002 14.774096364777  C 5.58233722810473 14.1867469347411  4.32218652159823 13.237951602173  3.27930325687648 12.0632527421012  C 1.84533884558493 10.3915658199072  0.194106940708061 7.50000086175398  0.194106940708061 2.80120542146664  C 0.194106940708061 2.30421741320414  0.237560739220923 1.62650688455254  0.281014207505151 1.08433813847352  Z " fill-rule="nonzero" fill="url(#LinearGradient1421)" stroke="none" transform="matrix(1 0 0 1 1 1 )" />
  </g>
</svg>