<?xml version="1.0" encoding="utf-8"?>
<svg version="1.1" xmlns:xlink="http://www.w3.org/1999/xlink" width="3px" height="5px" xmlns="http://www.w3.org/2000/svg">
  <g transform="matrix(1 0 0 1 -18 -9 )">
    <path d="M 2.81818118765356 0.172412772524714  C 2.81818118765356 0.172412772524714  2.59090853919687 0.818964369090303  2.59090853919687 0.818964369090303  C 2.2727268367761 0.689654044638855  1.9545458116806 0.603447170235107  1.63636410925983 0.603447170235107  C 1.22727335287498 0.603447170235107  0.727273515433046 0.732757468994903  0.727273515433046 1.2499987668007  C 0.727273515433046 2.15517096088588  3 1.93965509799659  3 3.53448239007837  C 3 4.56896498568996  2.13636183344691 5  1.09090767222052 5  C 0.727271429271202 5  0.363637272483731 4.91379312559625  0.0454555700629598 4.7844828011448  C 0.0454555700629598 4.7844828011448  0.136363242283477 4.13793120457921  0.136363242283477 4.13793120457921  C 0.499999485232792 4.26724152903066  0.863636405507381 4.35344774508582  1.2272726484567 4.39655118549915  C 1.63636340484154 4.39655118549915  2.22727091450399 4.181033318661  2.22727091450399 3.57758517214311  C 2.22727091450399 2.49999917786713  0 2.75862018645316  0 1.29310319313118  C 0 0.431034397710393  0.772727351543305 0  1.68181794537009 0  C 2.0454541883194 0  2.45454494470425 0.0862058916980529  2.81818118765356 0.172412772524714  Z " fill-rule="nonzero" fill="#000000" stroke="none" transform="matrix(1 0 0 1 18 9 )" />
  </g>
</svg>