<?xml version="1.0" encoding="utf-8"?>
<svg version="1.1" xmlns:xlink="http://www.w3.org/1999/xlink" width="4px" height="5px" xmlns="http://www.w3.org/2000/svg">
  <g transform="matrix(1 0 0 1 -30 -9 )">
    <path d="M 3.95555623372396 0  C 3.95555623372396 0  4 2.87610735980307  4 2.87610735980307  C 4 4.29203715803588  3.24444442325168 5  2 5  C 0.755555576748318 5  0 4.24778928920346  0 2.87610735980307  C 0 2.87610735980307  0 0  0 0  L 0.711110432942708 0  C 0.711110432942708 0  0.711110432942708 2.83186022943557  0.711110432942708 2.83186022943557  C 0.711110432942708 3.76106410348164  1.02222294277615 4.42478055354318  1.95555623372396 4.42478055354318  C 2.88888952467177 4.42478055354318  3.19999864366319 3.76106410348164  3.19999864366319 2.83186022943557  C 3.19999864366319 2.83186022943557  3.19999864366319 0  3.19999864366319 0  L 3.95555623372396 0  Z " fill-rule="nonzero" fill="#000000" stroke="none" transform="matrix(1 0 0 1 30 9 )" />
  </g>
</svg>