<?xml version="1.0" encoding="utf-8"?>
<svg version="1.1" xmlns:xlink="http://www.w3.org/1999/xlink" width="3px" height="4px" xmlns="http://www.w3.org/2000/svg">
  <g transform="matrix(1 0 0 1 -24 -3 )">
    <path d="M 2.95387505451868 0.237643086860808  C 2.95387505451868 0.237643086860808  2.86162516355603 1.23574332644706  2.86162516355603 1.23574332644706  C 2.63099691704165 1.09315746866472  2.40036938534604 0.998100239586248  2.12361547853157 0.998100239586248  C 1.61623332520273 0.998100239586248  1.20110238250194 1.425857784604  1.20110238250194 1.94867258702948  C 1.20110238250194 1.94867258702948  1.20110238250194 2.04373018438838  1.20110238250194 2.04373018438838  C 1.20110238250194 2.56654498681386  1.61623261038396 3.04183042397463  2.1697404240129 3.04183042397463  C 2.1697404240129 3.04183042397463  2.21586536949422 3.04183042397463  2.21586536949422 3.04183042397463  C 2.49261927630868 3.04183042397463  2.72324609318553 2.99430290011204  3 2.8517170423297  C 3 2.8517170423297  3 3.80228938977293  3 3.80228938977293  C 2.67712046037848 3.94487524755527  2.35424160808269 3.99240277141786  2.03136206846116 3.99240277141786  C 0.970472156489444 4.08746000757864  0.0940839924094083 3.2794738507866  0.0018326924290053 2.18631567389029  C 0.0018326924290053 2.18631567389029  0.0018326924290053 1.99620229224536  0.0018326924290053 1.99620229224536  C -0.0442929575611962 0.903044115349056  0.785968855456388 0  1.84685876742811 0  C 1.84685876742811 0  2.03136206846116 0  2.03136206846116 0  C 2.35424160808269 0  2.67712114770421 0.0475286145392353  2.95387505451868 0.237643086860808  Z " fill-rule="nonzero" fill="#000000" stroke="none" transform="matrix(1 0 0 1 24 3 )" />
  </g>
</svg>