<?xml version="1.0" encoding="utf-8"?>
<svg version="1.1" xmlns:xlink="http://www.w3.org/1999/xlink" width="4px" height="5px" xmlns="http://www.w3.org/2000/svg">
  <g transform="matrix(1 0 0 1 -35 -9 )">
    <path d="M 0 5  L 0 0  C 0 0  1.36585438471293 0  1.36585438471293 0  C 2.48780495463769 0  3.56097511050986 0.180180247907243  3.56097511050986 1.35135153711701  C 3.56097511050986 1.93693718172189  3.02438927661285 2.43243276613939  2.39024331242074 2.47747781804785  C 2.63414561528707 2.56756792186477  2.73170578919529 2.65765734103364  2.9268276343959 2.97297269432449  C 2.9268276343959 2.97297269432449  4 5  4 5  L 3.07317050477721 5  C 3.07317050477721 5  2.19512072579692 3.24324231441495  2.19512072579692 3.24324231441495  C 1.9512184229306 2.74774674006581  1.65853492097533 2.74774743813832  1.26829123057413 2.74774743813832  C 1.26829123057413 2.74774743813832  0.780486624841481 2.74774743813832  0.780486624841481 2.74774743813832  L 0.780486624841481 5  L 0 5  Z M 0.780486624841481 0.58558532241757  L 0.780486624841481 2.16216211572075  C 0.780486624841481 2.16216211572075  1.46341381719795 2.16216211572075  1.46341381719795 2.16216211572075  C 2.24390119800036 2.16216211572075  2.68292533152957 1.84684711146616  2.68292533152957 1.35135153711701  C 2.68292533152957 0.900901024744673  2.29268387993573 0.58558532241757  1.56097697133675 0.58558532241757  C 1.56097697133675 0.58558532241757  0.780486624841481 0.58558532241757  0.780486624841481 0.58558532241757  Z " fill-rule="nonzero" fill="#000000" stroke="none" transform="matrix(1 0 0 1 35 9 )" />
  </g>
</svg>