<?xml version="1.0" encoding="utf-8"?>
<svg version="1.1" xmlns:xlink="http://www.w3.org/1999/xlink" width="2px" height="2px" xmlns="http://www.w3.org/2000/svg">
  <g transform="matrix(1 0 0 1 -42 -2 )">
    <path d="M 1 2  C 0.449999988079071 2  0 1.60000002384186  0 1  C 0 0.449999988079071  0.449999988079071 0  1 0  C 1.55000001192093 0  2 0.449999988079071  2 1  C 2 1.55000001192093  1.55000001192093 2  1 2  Z M 1 0.149999618530273  C 0.550000011920929 0.149999618530273  0.149997711181641 0.5  0.149997711181641 1  C 0.149997711181641 1.44999998807907  0.550000011920929 1.85000038146973  1 1.85000038146973  C 1.44999998807907 1.85000038146973  1.84999847412109 1.44999998807907  1.84999847412109 1  C 1.84999847412109 0.550000011920929  1.44999998807907 0.149999618530273  1 0.149999618530273  Z M 1.14999771118164 1.04999923706055  L 1.5 1.54999923706055  L 1.29999923706055 1.54999923706055  L 1 1.04999923706055  L 0.799999237060547 1.04999923706055  L 0.799999237060547 1.54999923706055  L 0.649997711181641 1.54999923706055  L 0.649997711181641 0.44999885559082  C 0.649997711181641 0.44999885559082  1.09999847412109 0.44999885559082  1.09999847412109 0.44999885559082  C 1.29999847710133 0.44999885559082  1.5 0.5  1.5 0.75  C 1.5 0.900000005960464  1.40000000596046 1.04999923706055  1.25 1.04999923706055  C 1.25 1.04999923706055  1.14999771118164 1.04999923706055  1.14999771118164 1.04999923706055  Z M 1.09999847412109 0.600000381469727  C 1.09999847412109 0.600000381469727  0.799999237060547 0.600000381469727  0.799999237060547 0.600000381469727  L 0.799999237060547 0.899999618530273  C 0.799999237060547 0.899999618530273  1 0.899999618530273  1 0.899999618530273  C 1.15000000596046 0.899999618530273  1.34999847412109 0.900000005960464  1.34999847412109 0.75  C 1.34999847412109 0.599999994039536  1.24999848008156 0.600000381469727  1.09999847412109 0.600000381469727  Z " fill-rule="nonzero" fill="#000000" stroke="none" transform="matrix(1 0 0 1 42 2 )" />
  </g>
</svg>