<?xml version="1.0" encoding="utf-8"?>
<svg version="1.1" xmlns:xlink="http://www.w3.org/1999/xlink" width="10px" height="10px" xmlns="http://www.w3.org/2000/svg">
  <g transform="matrix(1 0 0 1 -2 -2 )">
    <path d="M 3.73437494039536 3.73437494039536  C 3.3072916045785 4.16145827621222  2.79166668653488 4.375  2.1875 4.375  C 1.58333331346512 4.375  1.0677083209157 4.16145827621222  0.640624985098839 3.73437494039536  C 0.213541649281979 3.3072916045785  0 2.79166668653488  0 2.1875  C 0 1.58333331346512  0.213541649281979 1.0677083209157  0.640624985098839 0.640624985098839  C 1.0677083209157 0.213541649281979  1.58333331346512 0  2.1875 0  C 2.79166668653488 0  3.3072916045785 0.213541649281979  3.73437494039536 0.640624985098839  C 4.16145827621222 1.0677083209157  4.375 1.58333331346512  4.375 2.1875  C 4.375 2.79166668653488  4.16145827621222 3.3072916045785  3.73437494039536 3.73437494039536  Z M 1.5234375 2.8515625  C 1.7057291790843 3.0338541790843  1.92708333954215 3.125  2.1875 3.125  C 2.44791666045785 3.125  2.6692708209157 3.0338541790843  2.8515625 2.8515625  C 3.0338541790843 2.6692708209157  3.125 2.44791666045785  3.125 2.1875  C 3.125 1.92708333954215  3.0338541790843 1.7057291790843  2.8515625 1.5234375  C 2.6692708209157 1.3411458209157  2.44791666045785 1.25  2.1875 1.25  C 1.92708333954215 1.25  1.7057291790843 1.3411458209157  1.5234375 1.5234375  C 1.3411458209157 1.7057291790843  1.25 1.92708333954215  1.25 2.1875  C 1.25 2.44791666045785  1.3411458209157 2.6692708209157  1.5234375 2.8515625  Z M 9.35937523841858 9.35937523841858  C 8.93229190260172 9.78645857423544  8.41666668653488 10  7.8125 10  C 7.20833331346512 10  6.69270869344473 9.78645857423544  6.26562535762787 9.35937523841858  C 5.83854202181101 8.93229190260172  5.625 8.41666668653488  5.625 7.8125  C 5.625 7.20833331346512  5.83854202181101 6.69270869344473  6.26562535762787 6.26562535762787  C 6.69270869344473 5.83854202181101  7.20833331346512 5.625  7.8125 5.625  C 8.41666668653488 5.625  8.93229190260172 5.83854202181101  9.35937523841858 6.26562535762787  C 9.78645857423544 6.69270869344473  10 7.20833331346512  10 7.8125  C 10 8.41666668653488  9.78645857423544 8.93229190260172  9.35937523841858 9.35937523841858  Z M 7.1484375 8.4765625  C 7.3307291790843 8.6588541790843  7.55208333954215 8.75  7.8125 8.75  C 8.07291666045785 8.75  8.2942708209157 8.6588541790843  8.4765625 8.4765625  C 8.6588541790843 8.2942708209157  8.75 8.07291666045785  8.75 7.8125  C 8.75 7.55208333954215  8.6588541790843 7.3307291790843  8.4765625 7.1484375  C 8.2942708209157 6.9661458209157  8.07291666045785 6.875  7.8125 6.875  C 7.55208333954215 6.875  7.3307291790843 6.9661458209157  7.1484375 7.1484375  C 6.9661458209157 7.3307291790843  6.875 7.55208333954215  6.875 7.8125  C 6.875 8.07291666045785  6.9661458209157 8.2942708209157  7.1484375 8.4765625  Z M 0.874999985098839 9.73437488079071  C 0.697916653007269 9.73437488079071  0.55208332836628 9.67708345502615  0.437499992549419 9.56250011920929  C 0.322916656732559 9.44791678339243  0.265625007450581 9.30208357051015  0.265625007450581 9.12500023841858  C 0.265625007450581 8.94791690632701  0.322916656732559 8.80208369344473  0.437499992549419 8.68750035762787  C 0.437499992549419 8.68750035762787  8.68750035762787 0.437499992549419  8.68750035762787 0.437499992549419  C 8.80208369344473 0.322916656732559  8.94791690632701 0.265625007450581  9.12500023841858 0.265625007450581  C 9.30208357051015 0.265625007450581  9.44791678339243 0.322916656732559  9.56250011920929 0.437499992549419  C 9.67708345502615 0.55208332836628  9.73437488079071 0.697916653007269  9.73437488079071 0.874999985098839  C 9.73437488079071 1.05208331719041  9.67708345502615 1.19791675359011  9.56250011920929 1.31250008940697  C 9.56250011920929 1.31250008940697  1.31250008940697 9.56250011920929  1.31250008940697 9.56250011920929  C 1.19791675359011 9.67708345502615  1.05208331719041 9.73437488079071  0.874999985098839 9.73437488079071  Z " fill-rule="nonzero" fill="#ffffff" stroke="none" transform="matrix(1 0 0 1 2 2 )" />
  </g>
</svg>