<?xml version="1.0" encoding="utf-8"?>
<svg version="1.1" xmlns:xlink="http://www.w3.org/1999/xlink" width="24px" height="4px" xmlns="http://www.w3.org/2000/svg">
  <g transform="matrix(1 0 0 1 -16 -11 )">
    <path d="M 0.324975709068454 2.90711104934044  C 0.324975709068454 2.90711104934044  0.234727492896048 3.18055964973042  0.234727492896048 3.18055964973042  L 0 3.18055964973042  L 0 0.046859789867954  L 0.395393648174682 0.046859789867954  C 0.395393648174682 0.046859789867954  0.395393648174682 1.20529814871064  0.395393648174682 1.20529814871064  C 0.551810699588477 1.0156855661562  0.770956633329956 0.885033176359867  1.01337270056301 0.892280764875305  C 1.67040525089372 0.9118688419835  1.91322483524621 1.47874805674582  1.92050945826639 2.02643068527707  C 1.9294128867372 2.68302301978617  1.55648189155679 3.21797290046004  0.954286348351739 3.22404520417385  C 0.696491612753825 3.22659165421251  0.471882281851997 3.11552818872085  0.324975709068454 2.90711104934044  Z M 0.402879597064826 1.47620188472771  C 0.402879597064826 1.47620188472771  0.397822065911163 2.6849817321965  0.397822065911163 2.6849817321965  C 0.559297878704548 2.82895409959848  0.590458681294294 2.90691526413254  0.90309042401787 2.90965759497147  C 1.37294863444922 2.91377109104744  1.49355002289336 2.40898621256258  1.49253826967517 2.0583596450229  C 1.49132416577566 1.61625675725659  1.36566478032024 1.23761891748833  0.957928203049995 1.22625783326179  C 0.701145219727999 1.21901024474635  0.525908787190212 1.3418276798227  0.402879597064826 1.47620188472771  Z M 3.33797673666893 3.39975087490804  C 3.15363529349331 3.96819685440342  2.72262805204579 4.06868370238817  2.26228030818366 3.96290808337695  C 2.26228030818366 3.96290808337695  2.31387916769185 3.67398424922671  2.31387916769185 3.67398424922671  C 2.64573422777995 3.73784138062862  2.88531776012042 3.66849837403659  3.01583392432422 3.31434595136232  C 3.01583392432422 3.31434595136232  2.19368406833302 0.937529772279192  2.19368406833302 0.937529772279192  L 2.60526459506269 0.937529772279192  L 3.18601151105515 2.83208808148647  L 3.73458382180539 0.937529772279192  L 4.1366544608957 0.937529772279192  C 4.1366544608957 0.937529772279192  3.33797673666893 3.39975087490804  3.33797673666893 3.39975087490804  Z M 6.46085401801437 3.21386051610141  C 5.8811194091056 3.21875753537846  5.44991062770469 2.96509158233289  5.3471164951587 2.85030544723894  C 5.3471164951587 2.85030544723894  5.5482521625442 2.58136093734997  5.5482521625442 2.58136093734997  C 5.85461105563033 2.79369568835751  6.08529055041755 2.8798827736428  6.46206745497614 2.88144981986253  C 6.8696016480203 2.88340862750038  7.12982489030485 2.67812626211113  7.12759903318715 2.3606035268312  C 7.12132616319671 1.46875839461519  5.54076567090733 1.96884185040016  5.51365068337844 0.780041513999089  C 5.50171199506462 0.258998653872666  5.9810809102707 0.0023944205236419  6.44345215868467 4.38512852527647E-05  C 6.79250703158545 -0.001719075552325  7.11991043472807 0.0494063150670243  7.34269848851065 0.201801552137496  C 7.34269848851065 0.201801552137496  7.16867680758784 0.504632753448727  7.16867680758784 0.504632753448727  C 7.06406151853299 0.40414591713938  6.68748698613945 0.336959126821491  6.4829104733234 0.335392080601756  C 6.12677333449119 0.332845630563096  5.90175857178006 0.46937417875211  5.89143868891687 0.759081829447946  C 5.86149079260321 1.61155497882175  7.52724126697893 1.14242152354116  7.52440835781724 2.35159347776461  C 7.52339660459905 2.91533833264775  7.08854572822138 3.20857173522382  6.46085401801437 3.21386051610141  Z M 10.5485387328191 3.17918923755692  L 10.1442434592988 3.17762155776411  L 10.1442434592988 0.941055183748436  L 10.388074817034 0.941055183748436  C 10.388074817034 0.941055183748436  10.4829791729987 1.30578507842322  10.4829791729987 1.30578507842322  C 10.6748075902528 1.05858355591323  11.0070673826099 0.893652241061177  11.2867159721921 0.894435764171044  C 11.6171545839183 0.895415167989969  11.7575833628829 1.12087393571691  11.8000769976698 1.28619730049724  C 12.0084981594855 1.0511403693612  12.2881476898287 0.894435453313423  12.5712362564466 0.892280764875305  C 13.0589013358806 0.888363149599608  13.1708007082242 1.23272220067721  13.1708007082242 1.61899907605526  C 13.1708007082242 1.61899907605526  13.1708007082242 3.17762155776411  13.1708007082242 3.17762155776411  L 12.7752048205559 3.17899346438927  C 12.7752048205559 3.17899346438927  12.7752048205559 1.74259919516306  12.7752048205559 1.74259919516306  C 12.7752048205559 1.42801469195428  12.7361511055148 1.22390703671788  12.4577166041905 1.22939169839574  C 12.1491318705706 1.2358557637101  11.9848251390638 1.43232446871309  11.8723181798446 1.52948132813414  C 11.8723181798446 1.52948132813414  11.8723181798446 3.17899346438927  11.8723181798446 3.17899346438927  L 11.4617473067701 3.17899346438927  C 11.4617473067701 3.17899346438927  11.4617473067701 1.70009325378367  11.4617473067701 1.70009325378367  C 11.4617473067701 1.40000392760577  11.4113613776601 1.22625780918127  11.1481031845966 1.23174247085913  C 10.8830238470853 1.23722713253699  10.805524052123 1.34045635696771  10.5485387328191 1.53770828453015  C 10.5485387328191 1.53770828453015  10.5485387328191 3.17918923755692  10.5485387328191 3.17918923755692  Z M 15.2347767019331 3.17899346438927  C 15.2347767019331 3.17899346438927  15.1317827662233 2.91102800714497  15.1317827662233 2.91102800714497  C 14.9272062534072 3.1184657436186  14.6641490213673 3.21797293621596  14.4176859209085 3.21581824777784  C 14.0249233159172 3.21209651330242  13.7066264101239 2.98076246083136  13.708245215386 2.6046713943645  C 13.7098640206482 2.1457227672612  14.0368632133501 2.01859545618511  14.3171188591222 1.92849030119552  C 14.5935298558947 1.8395604331967  14.8140904529644 1.80880721870123  15.0648028985088 1.76649697168051  C 15.0755274827346 1.36748785851428  14.9883161584145 1.21998979213625  14.6511999768428 1.21783510369813  C 14.3472693085165 1.21587629606028  14.0866414229131 1.3496626812443  13.9743368117368 1.40588046180051  C 13.9743368117368 1.40588046180051  13.831070971975 1.15006022640195  13.831070971975 1.15006022640195  C 13.9419591227283 1.06641914110501  14.221000197801 0.896786446879762  14.6779079405053 0.892868831604066  C 15.1789281596303 0.888951216328369  15.477598294849 1.16122508795782  15.4778006455068 1.67051506650123  C 15.4778006455068 1.67051506650123  15.4784089078006 3.17899346438927  15.4784089078006 3.17899346438927  L 15.2347767019331 3.17899346438927  Z M 15.0664208144578 2.68948750395563  C 15.0664208144578 2.68948750395563  15.0680418180327 2.02701875200583  15.0680418180327 2.02701875200583  C 14.8191505169361 2.07403013531419  14.6825617283951 2.11379318288128  14.4872933582273 2.17392858090233  C 14.2365809126829 2.25090972409807  14.1153732621928 2.37333497069193  14.1184085218474 2.59605139718154  C 14.1214437815019 2.82954127899657  14.2802890186657 2.91945171707767  14.4781879495752 2.91494645940117  C 14.7149381992387 2.90965767852358  14.8675101312723 2.83463515251066  15.0664208144578 2.68948750395563  Z M 19.4086663868506 2.91631687157467  C 19.5381707987785 2.92160565245226  19.6607926514505 2.87596518226519  19.6607926514505 2.87596518226519  C 19.6607926514505 2.87596518226519  19.7210939844364 3.1419714133814  19.7210939844364 3.1419714133814  C 19.5822814419213 3.21601434201909  19.3746694551788 3.21092220891545  19.2915033360833 3.21131397047038  C 18.8034335846854 3.21268513588985  18.7301822181697 2.90632702263758  18.7301822181697 2.55707161449723  C 18.7301822181697 2.55707161449723  18.7301822181697 1.21607165073768  18.7301822181697 1.21607165073768  L 18.385377775848 1.21607165073768  L 18.385377775848 0.937529772279192  L 18.7301822181697 0.937529772279192  L 18.8483549225923 0.299937709386688  L 19.1310394202982 0.29895809632264  L 19.1310394202982 0.937529772279192  L 19.6510820681304 0.937529772279192  L 19.6510820681304 1.21607165073768  L 19.1310394202982 1.21607165073768  C 19.1310394202982 1.21607165073768  19.1310394202982 2.57744397954544  19.1310394202982 2.57744397954544  C 19.1310394202982 2.90965775842712  19.2741032014821 2.91102809069708  19.4086663868506 2.91631687157467  Z M 20.9924640701663 2.90789414201102  C 21.3688362786389 2.91122411525076  21.6693272352723 2.68772405099517  21.6693272352723 2.68772405099517  C 21.6693272352723 2.68772405099517  21.8372786437603 2.91984228304391  21.8372786437603 2.91984228304391  C 21.661435926939 3.05343296328842  21.4641435456559 3.21660208165412  21.040016595989 3.21797324707358  C 20.3334081117721 3.21993205471143  20.0181436490039 2.69653944773286  20.0209765581656 2.07422623831199  C 20.0240118178201 1.45406774797717  20.3198482721356 0.896394578011451  20.9712150290189 0.893064604771709  C 21.7810222936236 0.888559347095202  21.8951502375252 1.64563847084717  21.8947455362097 2.1733412613994  C 21.8947455362097 2.1733412613994  20.449353769557 2.1733412613994  20.449353769557 2.1733412613994  C 20.4499608215067 2.59722725042937  20.6280305530227 2.90456416877128  20.9924640701663 2.90789414201102  Z M 20.97485842753 1.18904000908627  C 20.5590278320525 1.19393702836332  20.4770774626228 1.56513158927088  20.4491530738763 1.90518059140683  C 20.4491530738763 1.90518059140683  21.4766871704321 1.90518059140683  21.4766871704321 1.90518059140683  C 21.4564521053146 1.55396637745291  21.3627646312458 1.18433887060949  20.97485842753 1.18904000908627  Z M 23.8037196242745 2.68929173078798  C 23.8037196242745 2.68929173078798  24 2.91964650987627  24 2.91964650987627  C 23.8346795261459 3.07478407742082  23.5718261859619 3.20935494756728  23.2324841397344 3.21170551680567  C 22.5823314952311 3.21640665528245  22.2622131523213 2.73101387897258  22.2622131523213 2.06031812392516  C 22.2620108016635 1.39236468767642  22.6096489272912 0.893456049494499  23.2857024590045 0.892280764875305  C 23.5853837581231 0.891693122565708  23.8008864983911 1.00745922855658  23.9558870893819 1.12929706224429  C 23.9558870893819 1.12929706224429  23.7808557548039 1.38648845704217  23.7808557548039 1.38648845704217  C 23.6833227437415 1.31127024141372  23.4688291505652 1.20666940370235  23.2812501025188 1.209215853741  C 22.8211047428828 1.21548403861995  22.6778425446123 1.54358437505954  22.6788542978305 2.04993616823341  C 22.6798660510486 2.47166748487895  22.7763863681318 2.89790424673717  23.2792277075825 2.90240950441368  C 23.4287648411079 2.90378066983314  23.6094630063827 2.85246041150847  23.8037196242745 2.68929173078798  Z M 8.90808311502854 3.39975087490804  C 8.72374167185291 3.96819685440342  8.2925320461793 4.06868370238817  7.83238668654326 3.96290808337695  C 7.83238668654326 3.96290808337695  7.88378330655783 3.67398424922671  7.88378330655783 3.67398424922671  C 8.21563836664592 3.73784138062862  8.45542413848002 3.66849837403659  8.58594030268382 3.31434595136232  C 8.58594030268382 3.31434595136232  7.76358666338606 0.937529772279192  7.76358666338606 0.937529772279192  L 8.17537097342229 0.937529772279192  L 8.75611788941475 2.83208808148647  L 9.30469020016499 0.937529772279192  L 9.7067608392553 0.937529772279192  C 9.7067608392553 0.937529772279192  8.90808311502854 3.39975087490804  8.90808311502854 3.39975087490804  Z M 16.555721708422 3.17918923755692  L 16.1516286743954 3.17762155776411  L 16.1516286743954 0.941055183748436  L 16.3954615759435 0.941055183748436  C 16.3954615759435 0.941055183748436  16.4901621486016 1.30578507842322  16.4901621486016 1.30578507842322  C 16.6821929138987 1.05858355591323  17.0415680314938 0.891889314132385  17.3663408256505 0.894435764171044  C 17.7872301583856 0.897765737410786  17.9519430333029 1.25681525999536  17.9519430333029 1.63447337578323  C 17.9519430333029 1.63447337578323  17.9519430333029 3.17899346438927  17.9519430333029 3.17899346438927  L 17.5413721602285 3.17899346438927  C 17.5413721602285 3.17899346438927  17.5413721602285 1.70009325378367  17.5413721602285 1.70009325378367  C 17.5413721602285 1.40000392760577  17.4907838710144 1.22625780918127  17.227728038055 1.23174247085913  C 16.9626487005437 1.23722713253699  16.8129093878299 1.34045635696771  16.555721708422 1.53770828453015  C 16.555721708422 1.53770828453015  16.555721708422 3.17918923755692  16.555721708422 3.17918923755692  Z " fill-rule="nonzero" fill="#999999" stroke="none" transform="matrix(1 0 0 1 16 11 )" />
  </g>
</svg>