<?xml version="1.0" encoding="utf-8"?>
<svg version="1.1" xmlns:xlink="http://www.w3.org/1999/xlink" width="37px" height="11px" xmlns="http://www.w3.org/2000/svg">
  <g transform="matrix(1 0 0 1 -4 -1 )">
    <path d="M 12.1062027233825 2.96066105872803  L 11.850881717682 2.96046174342657  L 11.850881717682 8.77489266227841  L 13.0382272456685 8.77489266227841  L 13.0382272456685 4.74272167188054  L 15.1445219120402 8.77489266227841  L 16.4274585399453 8.77489266227841  L 16.4274585399453 2.96046174342657  L 15.2405228595205 2.96046174342657  L 15.2405228595205 6.58740114286094  L 13.2935474721911 2.96066105872803  L 12.1062027233825 2.96066105872803  Z M 21.4190870528688 6.61851182703249  C 21.4190870528688 5.3910518408587  20.3975991776557 4.40010969949034  19.1403985027318 4.40010969949034  C 18.8418578395813 4.39968966224294  18.546164779368 4.45678743271207  18.270264078965 4.56813135749765  C 17.994363378562 4.67947528228323  17.7436763628211 4.84287696898206  17.5325665184151 5.04897419703666  C 17.3214566740091 5.25507142509126  17.1540741944859 5.49981330831795  17.0400076671103 5.76917721647675  C 16.9259411397346 6.03854112463555  16.8674324684064 6.32723279257819  16.867835849039 6.61871114233395  C 16.867835849039 7.84617112850774  17.8829935858077 8.84349516324974  19.1403985027318 8.84349516324974  C 20.3978034196559 8.84349516324974  21.4190870528688 7.84617122360092  21.4190870528688 6.61851182703249  Z M 18.3215137244391 5.81287595520233  C 18.5404372863105 5.59916868160466  18.8369490189761 5.4788325658732  19.1465259575317 5.47820045946257  C 19.7899349113763 5.47820045946257  20.3083378265924 5.99072240264568  20.3083378265924 6.61851182703249  C 20.3083378265924 7.24670011975516  19.7897305232803 7.75284031220439  19.1467301021346 7.75284031220439  C 18.503729680989 7.75284031220439  17.9785850753153 7.24650066181394  17.9785850753153 6.61851182703249  C 17.9792866333479 6.3162584454845  18.1025901625677 6.0265832288  18.3215137244391 5.81287595520233  Z M 22.4816316608021 4.49403893716395  L 21.7271054165329 4.4942382524654  L 21.7271054165329 8.77489266227841  L 23.0167834914026 8.77489266227841  C 23.0167834914026 8.77489266227841  23.0167834914026 7.03730370520368  23.0167834914026 7.03730370520368  C 23.0167834914026 6.42128034993875  23.154452193152 6.05693157473542  23.383424081583 5.79289307474075  C 23.6209747427544 5.51908275221028  23.8297266001197 5.3583460860039  24.4674163396717 5.35016966697747  C 24.4674163396717 5.35016966697747  24.9510956799262 5.3565511799784  24.9510956799262 5.3565511799784  C 24.9510956799262 5.3565511799784  24.957631423932 7.31430480800791  24.957631423932 7.31430480800791  C 24.958652707932 7.61384092576287  24.9739734867197 7.86651212987833  25.0428080323889 8.08169154096732  C 25.2011070510533 8.57626516978247  25.5861311013523 8.84728367546821  26.3308513920792 8.84728367546821  C 26.6711432302299 8.84728367546821  27.0028535441685 8.80281250674297  27.3174090153997 8.68973862308674  C 27.3174090153997 8.68973862308674  27.1627889581145 7.82104342182739  27.1627889581145 7.82104342182739  C 27.0151112904627 7.87628410694054  26.8390410263448 7.91118348998808  26.7048443046772 7.91238003909125  C 26.326560703021 7.91577026170501  26.2393440693549 7.7542362325134  26.2405696101929 7.36795029317054  C 26.2405696101929 7.36795029317054  26.2405696101929 5.3565511799784  26.2405696101929 5.3565511799784  L 27.1691189991616 5.3565511799784  L 27.1723884295202 4.49403893716395  L 26.2405696101929 4.49403893716395  L 26.2375058827929 3.28213419798275  L 25.1962032220563 3.27914256659738  L 24.9735640530963 4.49403893716395  C 24.9735640530963 4.49403893716395  24.3675350863797 4.49403893716395  24.3675350863797 4.49403893716395  C 24.1738996328319 4.49403893716395  24.0249955513813 4.49563444319564  23.8783391667784 4.53192976493935  C 23.2573984887066 4.68468919369595  23.0024843721268 5.1306031321134  22.8458193990357 5.40999734983957  C 22.8458193990357 5.40999734983957  22.4816316608021 4.49403893716395  22.4816316608021 4.49403893716395  Z M 31.8709089265734 6.61851182703249  C 31.8709089265734 5.3910518408587  30.8496237350047 4.40010969949034  29.5922188180807 4.40010969949034  C 29.2936953211927 4.39971592068254  28.9980253928225 4.45683311309753  28.7221482868995 4.56818879377727  C 28.4462711809765 4.679544474457  28.1956074675239 4.84295033336902  27.9845192940025 5.04904494636122  C 27.7734311204812 5.25513955935343  27.6060671951311 5.49987274155431  27.4920134267931 5.7692236219477  C 27.3779596584552 6.03857450234109  27.3194585474921 6.32724960029744  27.3198618673465 6.61871114233395  C 27.3198618673465 7.84617112850774  28.3350181431568 8.84349516324974  29.5922188180807 8.84349516324974  C 30.8494194930045 8.84349516324974  31.8709089265734 7.84617122360092  31.8709089265734 6.61851182703249  Z M 28.7734057241523 5.81280596662319  C 28.9923734069708 5.59909301120813  29.288939633389 5.47877989154235  29.5985519758393 5.47820045946257  C 30.2417566389851 5.47820045946257  30.7603622865442 5.99072240264568  30.7603622865442 6.61851182703249  C 30.7603622865442 7.24670011975516  30.2417566389851 7.75284031220439  29.5985519758393 7.75284031220439  C 28.9553473126934 7.75284031220439  28.4304053906642 7.24650066181394  28.4304053906642 6.61851182703249  C 28.4311071370235 6.31622397420741  28.5544380413338 6.02651892203826  28.7734057241523 5.81280596662319  Z M 36.1574406811885 6.0202372806477  C 36.1584619651884 4.94892694955884  35.5201594743354 4.39552292795914  34.7021109486958 4.40010969949034  C 34.1122172947879 4.4031010721554  33.6277213761216 4.6803017489814  33.1765180722516 5.15393576486936  C 33.1765180722516 5.15393576486936  32.9275271075982 4.49344061088688  32.9275271075982 4.49344061088688  L 32.1744329922612 4.49344061088688  L 32.1744329922612 8.77489266227841  L 33.4318390779521 8.77489266227841  C 33.4318390779521 8.77489266227841  33.4318390779521 5.83337614255318  33.4318390779521 5.83337614255318  C 33.5605208638511 5.69118622545749  33.8511782922603 5.42794539754731  34.2233341956235 5.42834424726384  C 34.6959844191696 5.42874309698037  34.8675582372932 5.72548729764345  34.8679667509218 6.05772909744748  C 34.8679667509218 6.05772909744748  34.8745024949276 8.77489266227841  34.8745024949276 8.77489266227841  L 36.1574406811885 8.77489266227841  C 36.1574406811885 8.77489266227841  36.1574406811885 6.0202372806477  36.1574406811885 6.0202372806477  Z M 36.3684389327133 4.99040744971715  L 36.2740711420566 4.99040744971715  L 36.2740711420566 4.58118765086101  L 36.1515158126358 4.58118765086101  L 36.1515158126358 4.49623254659808  L 36.4940548728226 4.49623254659808  L 36.4940548728226 4.58118765086101  L 36.3684389327133 4.58118765086101  L 36.3684389327133 4.99040744971715  Z M 36.6464308978311 4.99040744971715  L 36.5588045541388 4.99040744971715  L 36.5588045541388 4.49623254659808  L 36.6950453637358 4.49623254659808  L 36.785735434828 4.82348887257666  L 36.8711146295321 4.49643186189953  L 37 4.49643186189953  L 37 4.99040744971715  L 36.9283062854721 4.99040744971715  L 36.9283062854721 4.60571674598475  L 36.8165784117862 4.99040744971715  L 36.7485593001113 4.99040744971715  L 36.6464308978311 4.59873690670675  L 36.6464308978311 4.99040744971715  Z M 10.4084208869538 0  L 9.88490997378846 0.000199410394631848  L 9.88490997378846 0.511325338175547  L 10.4084208869538 0.511325338175547  L 10.4084208869538 0  Z M 9.88490997378846 1.02225176046865  L 9.88490997378846 0.511325338175547  L 8.91469015212669 0.511325338175547  L 8.91469015212669 1.02225176046865  L 9.88490997378846 1.02225176046865  Z M 8.91469015212669 2.01937590935013  L 8.91469015212669 1.02225176046865  L 8.4295802412958 1.02225176046865  L 8.4295802412958 2.01937590935013  L 8.91469015212669 2.01937590935013  Z M 9.41266896472194 2.01937590935013  L 8.91469015212669 2.01937590935013  L 8.91469015212669 2.5055736359385  L 9.41266896472194 2.5055736359385  L 9.41266896472194 2.01937590935013  Z M 9.41246326176325 1.53955979085587  L 9.41266896472194 2.01937590935013  L 9.9615062754986 2.01937590935013  L 9.9615062754986 1.53955979085587  L 9.41246326176325 1.53955979085587  Z M 8.91469015212669 3.53999038141148  L 8.91469015212669 2.5055736359385  L 8.4295802412958 2.5055736359385  L 8.4295802412958 3.00413575792583  L 7.92526982929771 3.00413575792583  L 7.92526982929771 2.5055736359385  L 7.10191101165338 2.5055736359385  L 7.10191101165338 2.86055000372765  L 6.6549971793761 2.86055000372765  L 6.6549971793761 3.29689151811729  L 7.14664361339064 3.29689151811729  L 7.14664361339064 3.78308924470566  L 6.64866480079538 3.78308924470566  L 6.6549971793761 3.29689151811729  L 6.11882267781618 3.29689151811729  L 6.11882267781618 4.06348060949817  L 5.62104878900175 4.06348060949817  L 5.62104878900175 4.54329682308561  L 5.28279988218831 4.54329682308561  L 5.28279988218831 5.02949454967398  C 5.28279988218831 5.02949454967398  4.92535047420765 5.02949454967398  4.92535047420765 5.02949454967398  C 4.15652787430926 6.26034470274287  3.53967220668628 7.39746531381233  3.1826313070553 8.23883872349131  C 2.2028114296044 6.96511219750168  1.74323332715186 6.50643500723607  0.917014537121592 6.05772909744748  C 0.621659201817978 5.89739151502244  0.358576525299126 5.82280697560504  0.170047499170176 5.92690674962388  C -0.0258347746500712 6.03499501681489  -0.0832306969395451 6.37641006325806  0.163920044370284 6.64343993313186  C 1.69788869336935 8.30225579345679  1.97383934637885 9.18730293235548  2.53186895942353 10.4512575882627  C 2.69813400047841 10.8281705496323  3.01187262545543 10.9899041051134  3.36809648403776 10.9996759224488  C 3.55846382208954 11.0048609686244  3.79213330087408 10.9486235093885  3.94879827396517 10.7691411502277  C 4.02151369765483 10.6859809891361  4.0427564057674 10.5721094520147  4.10199087738545 10.4325120602355  C 4.56830916063843 9.33487765519172  5.08569188852458 8.2342521893216  5.83204626134872 7.18587576529261  C 5.83204626134872 7.18587576529261  5.83817371614862 6.63745743110655  5.83817371614862 6.63745743110655  L 6.23402334728581 6.63745743110655  L 6.22769174788297 6.15125970451818  L 6.65520132397904 6.15125970451818  L 6.64907386917915 5.57153137085911  L 7.14684775799359 5.57153137085911  L 7.14684775799359 5.04185894507294  L 6.64253734599549 5.04185894507294  L 6.6488697245762 4.54329682308561  L 7.14684775799359 4.54329682308561  L 7.14684775799359 5.04185894507294  L 7.64462164680802 5.04185894507294  L 7.64462164680802 4.53711462538613  L 8.0341388993645 4.53711462538613  L 8.0341388993645 3.94502227670082  L 8.48718096561955 3.94502227670082  L 8.48718096561955 3.53999038141148  L 8.91469015212669 3.53999038141148  Z M 7.92526982929771 2.01937590935013  L 7.92526982929771 2.5055736359385  L 8.4295802412958 2.5055736359385  L 8.4295802412958 2.01937590935013  L 7.92526982929771 2.01937590935013  Z M 7.42116434108044 2.01937590935013  L 7.92526982929771 2.01937590935013  L 7.92526982929771 1.55192418625482  L 7.42116434108044 1.55192418625482  L 7.42116434108044 2.01937590935013  Z " fill-rule="nonzero" fill="#000000" stroke="none" transform="matrix(1 0 0 1 4 1 )" />
  </g>
</svg>