<?xml version="1.0" encoding="utf-8"?>
<svg version="1.1" xmlns:xlink="http://www.w3.org/1999/xlink" width="10px" height="6px" xmlns="http://www.w3.org/2000/svg">
  <defs>
    <mask fill="white" id="clip1448">
      <path d="M 0 1.09090909090909  C 0 0.488416606729681  0.497461358706156 0  1.11111111111111 0  C 1.11111111111111 0  8.88888888888889 0  8.88888888888889 0  C 9.50253864129384 0  10 0.488416606729681  10 1.09090909090909  C 10 1.09090909090909  10 4.90909090909091  10 4.90909090909091  C 10 5.51158339327032  9.50253864129384 6  8.88888888888889 6  C 8.88888888888889 6  1.11111111111111 6  1.11111111111111 6  C 0.497461358706156 6  0 5.51158339327032  0 4.90909090909091  C 0 4.90909090909091  0 1.09090909090909  0 1.09090909090909  Z " fill-rule="evenodd" />
    </mask>
  </defs>
  <g transform="matrix(1 0 0 1 -1 -6 )">
    <path d="M 0 1.09090909090909  C 0 0.488416606729681  0.497461358706156 0  1.11111111111111 0  C 1.11111111111111 0  8.88888888888889 0  8.88888888888889 0  C 9.50253864129384 0  10 0.488416606729681  10 1.09090909090909  C 10 1.09090909090909  10 4.90909090909091  10 4.90909090909091  C 10 5.51158339327032  9.50253864129384 6  8.88888888888889 6  C 8.88888888888889 6  1.11111111111111 6  1.11111111111111 6  C 0.497461358706156 6  0 5.51158339327032  0 4.90909090909091  C 0 4.90909090909091  0 1.09090909090909  0 1.09090909090909  Z " fill-rule="nonzero" fill="#ffffff" stroke="none" fill-opacity="0" transform="matrix(1 0 0 1 1 6 )" />
    <path d="M 0 1.09090909090909  C 0 0.488416606729681  0.497461358706156 0  1.11111111111111 0  C 1.11111111111111 0  8.88888888888889 0  8.88888888888889 0  C 9.50253864129384 0  10 0.488416606729681  10 1.09090909090909  C 10 1.09090909090909  10 4.90909090909091  10 4.90909090909091  C 10 5.51158339327032  9.50253864129384 6  8.88888888888889 6  C 8.88888888888889 6  1.11111111111111 6  1.11111111111111 6  C 0.497461358706156 6  0 5.51158339327032  0 4.90909090909091  C 0 4.90909090909091  0 1.09090909090909  0 1.09090909090909  Z " stroke-width="2.66666674613953" stroke="#ffffff" fill="none" transform="matrix(1 0 0 1 1 6 )" mask="url(#clip1448)" />
  </g>
</svg>