<?xml version="1.0" encoding="utf-8"?>
<svg version="1.1" xmlns:xlink="http://www.w3.org/1999/xlink" width="14px" height="14px" xmlns="http://www.w3.org/2000/svg">
  <g transform="matrix(1 0 0 1 0 -2 )">
    <path d="M 7.00010531635597 0  C 3.13497829730807 0  0 3.13497829730807  0 7.00010531635597  C 0 10.8652323354039  3.13497829730807 14  7.00010531635597 14  C 10.8652323354039 14  14 10.8654413724135  14 7.00031435336555  C 14 3.13518733431765  10.8652323354039 0.000209236472376226  7.00010531635597 0.000209236472376226  Z M 2.16346722643906 7.00010531635597  C 2.16346722643906 4.34554931825896  4.31940533074009 2.19609495158525  6.9739613288371 2.19609495158525  C 9.62851732693411 2.19609495158525  11.7777618587471 4.34554931825896  11.7777618587471 7.00010531635597  C 11.7777618587471 9.65466131445298  9.62851732693411 11.8039050484147  6.9739613288371 11.8039050484147  C 4.31940533074009 11.8039050484147  2.16346722643906 9.65466131445298  2.16346722643906 7.00010531635597  Z " fill-rule="nonzero" fill="#feb511" stroke="none" transform="matrix(1 0 0 1 0 2 )" />
  </g>
</svg>