<?xml version="1.0" encoding="utf-8"?>
<svg version="1.1" xmlns:xlink="http://www.w3.org/1999/xlink" width="10px" height="9px" xmlns="http://www.w3.org/2000/svg">
  <g transform="matrix(1 0 0 1 -1 -1 )">
    <path d="M 9.67678967461117 3.16915622865544  L 6.67898439625337 2.75854637048803  C 6.67898439625337 2.75854637048803  5.33888577610668 0.198076127111647  5.33888577610668 0.198076127111647  C 5.30228397454145 0.127971991267365  5.24206810672379 0.071221016322554  5.16768379577667 0.0367253325365075  C 4.98113267013056 -0.0500702637177394  4.75443734922774 0.0222594086709203  4.66116178640469 0.198076127111647  C 4.66116178640469 0.198076127111647  3.32106352658006 2.75854637048803  3.32106352658006 2.75854637048803  C 3.32106352658006 2.75854637048803  0.323258158141747 3.16915622865544  0.323258158141747 3.16915622865544  C 0.24060892625829 3.18028386892875  0.165043868084294 3.21700494599522  0.107189404639867 3.27264314736177  C 0.0372465697340283 3.3403954568333  -0.0012951232510226 3.43154630381546  3.32319821035143E-05 3.52606625736426  C 0.00136158721522963 3.62058621091307  0.0424513036001578 3.7107427848311  0.114273606499489 3.77672545549589  C 0.114273606499489 3.77672545549589  2.2832255670118 5.7696855567748  2.2832255670118 5.7696855567748  C 2.2832255670118 5.7696855567748  1.77080040139877 8.5838660535658  1.77080040139877 8.5838660535658  C 1.758783826922 8.64932996014758  1.76647029583792 8.71665764056592  1.79298813279309 8.77821398566347  C 1.81950596974826 8.83977033076102  1.86379415296392 8.89309239174452  1.92083057837095 8.93213389119444  C 1.97786700377798 8.97117539064437  2.04536936050942 8.99437423644292  2.11568337780308 8.99909941094956  C 2.18599739509674 9.0038245854562  2.25630961078012 8.98988714606658  2.31864666639042 8.9588676666118  C 2.31864666639042 8.9588676666118  5.00002378125569 7.63022714630769  5.00002378125569 7.63022714630769  C 5.00002378125569 7.63022714630769  7.68140107628198 8.9588676666118  7.68140107628198 8.9588676666118  C 7.75460467941246 8.99558887898312  7.83961589556245 9.00782874100316  7.9210844252593 8.99447557214459  C 8.12652679715129 8.96109265132466  8.26466880097431 8.77748699007654  8.22924770159569 8.5838660535658  C 8.22924770159569 8.5838660535658  7.71682217566061 5.7696855567748  7.71682217566061 5.7696855567748  C 7.71682217566061 5.7696855567748  9.88577430507388 3.77672545549589  9.88577430507388 3.77672545549589  C 9.94480947070492 3.72220001709546  9.98377253589258 3.65098291665431  9.99557956901879 3.57308943474114  C 10.0274585590226 3.37835572995821  9.88341275431981 3.19808809230483  9.67678967461117 3.16915622865544  Z " fill-rule="nonzero" fill="#ffc000" stroke="none" transform="matrix(1 0 0 1 1 1 )" />
  </g>
</svg>