<?xml version="1.0" encoding="utf-8"?>
<svg version="1.1" xmlns:xlink="http://www.w3.org/1999/xlink" width="40px" height="40px" xmlns="http://www.w3.org/2000/svg">
  <defs>
    <mask fill="white" id="clip1401">
      <path d="M 20 0  C 31.0456953048706 0  40 8.95430469512939  40 20  C 40 31.0456953048706  31.0456953048706 40  20 40  C 8.95430469512939 40  0 31.0456953048706  0 20  C 0 8.95430469512939  8.95430469512939 0  20 0  Z " fill-rule="evenodd" />
    </mask>
  </defs>
  <g>
    <path d="M 20 0  C 31.0456953048706 0  40 8.95430469512939  40 20  C 40 31.0456953048706  31.0456953048706 40  20 40  C 8.95430469512939 40  0 31.0456953048706  0 20  C 0 8.95430469512939  8.95430469512939 0  20 0  Z " fill-rule="nonzero" fill="#2c7ef8" stroke="none" />
    <path d="M 20 0  C 31.0456953048706 0  40 8.95430469512939  40 20  C 40 31.0456953048706  31.0456953048706 40  20 40  C 8.95430469512939 40  0 31.0456953048706  0 20  C 0 8.95430469512939  8.95430469512939 0  20 0  Z " stroke-width="4" stroke="#2c7ef8" fill="none" mask="url(#clip1401)" />
  </g>
</svg>