<?xml version="1.0" encoding="utf-8"?>
<svg version="1.1" xmlns:xlink="http://www.w3.org/1999/xlink" width="13px" height="13px" xmlns="http://www.w3.org/2000/svg">
  <g transform="matrix(1 0 0 1 -4 -4 )">
    <path d="M 4.85468742251396 4.85468742251396  C 4.29947908595204 5.40989575907588  3.62916669249535 5.6875  2.84375 5.6875  C 2.05833330750465 5.6875  1.38802081719041 5.40989575907588  0.83281248062849 4.85468742251396  C 0.277604144066572 4.29947908595204  0 3.62916669249535  0 2.84375  C 0 2.05833330750465  0.277604144066572 1.38802081719041  0.83281248062849 0.83281248062849  C 1.38802081719041 0.277604144066572  2.05833330750465 0  2.84375 0  C 3.62916669249535 0  4.29947908595204 0.277604144066572  4.85468742251396 0.83281248062849  C 5.40989575907588 1.38802081719041  5.6875 2.05833330750465  5.6875 2.84375  C 5.6875 3.62916669249535  5.40989575907588 4.29947908595204  4.85468742251396 4.85468742251396  Z M 1.98046875 3.70703125  C 2.21744793280959 3.94401043280959  2.5052083414048 4.0625  2.84375 4.0625  C 3.1822916585952 4.0625  3.47005206719041 3.94401043280959  3.70703125 3.70703125  C 3.94401043280959 3.47005206719041  4.0625 3.1822916585952  4.0625 2.84375  C 4.0625 2.5052083414048  3.94401043280959 2.21744793280959  3.70703125 1.98046875  C 3.47005206719041 1.74348956719041  3.1822916585952 1.625  2.84375 1.625  C 2.5052083414048 1.625  2.21744793280959 1.74348956719041  1.98046875 1.98046875  C 1.74348956719041 2.21744793280959  1.625 2.5052083414048  1.625 2.84375  C 1.625 3.1822916585952  1.74348956719041 3.47005206719041  1.98046875 3.70703125  Z M 12.1671878099442 12.1671878099442  C 11.6119794733822 12.7223961465061  10.9416666924953 13  10.15625 13  C 9.37083330750465 13  8.70052130147815 12.7223961465061  8.14531296491623 12.1671878099442  C 7.59010462835431 11.6119794733822  7.3125 10.9416666924953  7.3125 10.15625  C 7.3125 9.37083330750465  7.59010462835431 8.70052130147815  8.14531296491623 8.14531296491623  C 8.70052130147815 7.59010462835431  9.37083330750465 7.3125  10.15625 7.3125  C 10.9416666924953 7.3125  11.6119794733822 7.59010462835431  12.1671878099442 8.14531296491623  C 12.7223961465061 8.70052130147815  13 9.37083330750465  13 10.15625  C 13 10.9416666924953  12.7223961465061 11.6119794733822  12.1671878099442 12.1671878099442  Z M 9.29296875 11.01953125  C 9.52994793280959 11.2565104328096  9.8177083414048 11.375  10.15625 11.375  C 10.4947916585952 11.375  10.7825520671904 11.2565104328096  11.01953125 11.01953125  C 11.2565104328096 10.7825520671904  11.375 10.4947916585952  11.375 10.15625  C 11.375 9.8177083414048  11.2565104328096 9.52994793280959  11.01953125 9.29296875  C 10.7825520671904 9.05598956719041  10.4947916585952 8.9375  10.15625 8.9375  C 9.8177083414048 8.9375  9.52994793280959 9.05598956719041  9.29296875 9.29296875  C 9.05598956719041 9.52994793280959  8.9375 9.8177083414048  8.9375 10.15625  C 8.9375 10.4947916585952  9.05598956719041 10.7825520671904  9.29296875 11.01953125  Z M 1.13749998062849 12.6546873450279  C 0.90729164890945 12.6546873450279  0.717708326876163 12.580208491534  0.568749990314245 12.4312501549721  C 0.419791653752327 12.2822918184102  0.345312509685755 12.0927086416632  0.345312509685755 11.8625003099442  C 0.345312509685755 11.6322919782251  0.419791653752327 11.4427088014781  0.568749990314245 11.2937504649162  C 0.568749990314245 11.2937504649162  11.2937504649162 0.568749990314245  11.2937504649162 0.568749990314245  C 11.4427088014781 0.419791653752327  11.6322919782251 0.345312509685755  11.8625003099442 0.345312509685755  C 12.0927086416632 0.345312509685755  12.2822918184102 0.419791653752327  12.4312501549721 0.568749990314245  C 12.580208491534 0.717708326876163  12.6546873450279 0.90729164890945  12.6546873450279 1.13749998062849  C 12.6546873450279 1.36770831234753  12.580208491534 1.55729177966714  12.4312501549721 1.70625011622906  C 12.4312501549721 1.70625011622906  1.70625011622906 12.4312501549721  1.70625011622906 12.4312501549721  C 1.55729177966714 12.580208491534  1.36770831234753 12.6546873450279  1.13749998062849 12.6546873450279  Z " fill-rule="nonzero" fill="#ffffff" stroke="none" transform="matrix(1 0 0 1 4 4 )" />
  </g>
</svg>