<?xml version="1.0" encoding="utf-8"?>
<svg version="1.1" xmlns:xlink="http://www.w3.org/1999/xlink" width="23px" height="13px" xmlns="http://www.w3.org/2000/svg">
  <g transform="matrix(1 0 0 1 -1 0 )">
    <path d="M 1.6388863049439 0  L 21.3611136950561 0  C 21.3611136950561 0  21.6038037146793 0.00039433648159028  21.6038037146793 0.00039433648159028  C 21.6694114175324 0.000788670208791318  21.7351643591461 0.00144589055750219  21.8012075144073 0.00302322546630634  C 21.9163112934823 0.00591500609164152  22.050721130021 0.0115671264186943  22.1761305497601 0.0319410356370117  C 22.2849928904599 0.0496860539119363  22.3764363215827 0.0766321601292456  22.4641067892786 0.117117088883938  C 22.6395559735087 0.19789754234734  22.7820914634163 0.327112672664411  22.8711069177375 0.486082030820899  C 22.9155227519125 0.564948778709453  22.9451339287815 0.647233112050025  22.9647291508861 0.746736658838838  C 22.9870822180554 0.858990321904349  22.9933239957355 0.981102263819594  22.996372141234 1.08586358857784  C 22.9982590885117 1.1450136455769  22.9991283925283 1.20416378484039  22.9992735423228 1.26462829024916  C 22.9999992912446 1.33784291585199  23 1.41092603589486  23 1.48427211221468  C 23 1.48427211221468  23 11.5158592601552  23 11.5158592601552  C 23 11.5892053364751  23.0000003189602 11.6622884095097  22.9994197197822 11.7369489303219  C 22.9991294201932 11.7960989873209  22.9982579013498 11.8552498512948  22.9965161038834 11.9143999082939  C 22.9933228085736 12.0190297901699  22.98708237811 12.141141387358  22.9644390107773 12.2547095027506  C 22.9479781622503 12.3450488082248  22.9164078194005 12.4325881695526  22.8708167776287 12.5143123369995  C 22.7816090328119 12.6733350651813  22.6388715280085 12.802549161317  22.4632363689519 12.8832771535812  C 22.3761464929314 12.9234991926539  22.2849934355108 12.9504458923503  22.1771471475462 12.9680594657842  C 22.0492701872317 12.9886962646845  21.9090547453965 12.994348541216  21.8035308500884 12.9969774326491  C 21.7371973989894 12.9982918783656  21.6711545638375 12.9992116213586  21.603369611921 12.9994745105203  C 21.522811478765 13.0000002888436  21.441816976131 13  21.3611136950561 13  C 21.3611136950561 13  1.63569282578748 13  1.63569282578748 13  C 1.55586044087731 13  1.47602808192195 13.0000002888436  1.39474420052004 12.9994745105203  C 1.32942027884873 12.9992183173707  1.26410044938495 12.9984299147661  1.19879220874141 12.997108805019  C 1.09080076420635 12.994479913586  0.950585919331637 12.9886961922135  0.823725003100734 12.9681908381542  C 0.723423655707233 12.9530539331792  0.626232411986219 12.9242474150239  0.535457585281259 12.8827516641014  C 0.448384761567399 12.8426966296469  0.36891175985895 12.7903393381992  0.300024598233468 12.7276470259702  C 0.23092003051316 12.6651789313085  0.173206096479061 12.5931708819497  0.129038152316913 12.5143123369995  C 0.0834244044168295 12.4321222943598  0.051810776523111 12.3441533952111  0.0352714028163524 12.2533947762088  C 0.0126280354836093 12.1399581115332  0.00624144107875228 12.0183724974113  0.00333844539164485 11.9145312806638  C 0.00169863449112699 11.8551726911812  0.000730921092497248 11.7957999992257  0.000435452408162904 11.7364234408422  C 0.000435452408162904 11.7364234408422  0 11.5619960330636  0 11.5619960330636  L 0 1.43826646096567  C 0 1.43826646096567  0.000290278534504525 1.26410255005881  0.000290278534504525 1.26410255005881  C 0.000589948044515708 1.20463841140112  0.00155766056446717 1.14517852307207  0.00319327151798647 1.08573221620791  C 0.00638656682787715 0.981628113695844  0.0126280246691074 0.860041833623875  0.0354165420836047 0.745685053102826  C 0.0519887605141183 0.655101477128209  0.0836022164572564 0.567310402328269  0.129183291584165 0.485293357857719  C 0.173450067316381 0.406422387061997  0.231261742818756 0.334414827372328  0.300460085248037 0.271958794242326  C 0.36951359554192 0.209326848432098  0.449070669188228 0.156978711839817  0.53618328161752 0.116854218788764  C 0.626736964735795 0.0756564609537094  0.723620358519599 0.0470316629553619  0.823579933046294 0.0319410356370117  C 0.949134500704309 0.0115671264186943  1.08368834315048 0.00591500609164152  1.19893727879585 0.00302322546630634  C 1.26443700533603 0.00155848497059022  1.32995118005076 0.000682147265304259  1.39547010449474 0.00039433648159028  C 1.39547010449474 0.00039433648159028  1.6388863049439 0  1.6388863049439 0  Z " fill-rule="nonzero" fill="#ffffff" stroke="none" transform="matrix(1 0 0 1 1 0 )" />
  </g>
</svg>