<?xml version="1.0" encoding="utf-8"?>
<svg version="1.1" xmlns:xlink="http://www.w3.org/1999/xlink" width="3px" height="2px" xmlns="http://www.w3.org/2000/svg">
  <g transform="matrix(1 0 0 1 -6 -6 )">
    <path d="M 2.77788468879918 1.28341884419328  C 2.93743979086886 1.01344021779825  3.01252471615725 0.72358241818106  2.9982976643868 0.432534150913703  C 2.9982976643868 0.287729252313905  2.9818046522574 0.142924311679799  2.94813135761183 0  C 2.94813135761183 0  0 0  0 0  L 0 0.821344550851649  C 0 0.821344550851649  1.68435213322805 0.821344550851649  1.68435213322805 0.821344550851649  C 1.65005885417822 0.951877414730884  1.57760344296695 1.07633108782323  1.47132785127015 1.18724972772978  C 1.36505225957336 1.29816836763632  1.22714314741921 1.39326945538333  1.06586263850114 1.46685477112936  C 1.06586263850114 1.46685477112936  1.06586263850114 2  1.06586263850114 2  C 1.06586263850114 2  2.07193807059237 2  2.07193807059237 2  C 2.37784560935587 1.79750403641449  2.61832958672949 1.55339747058831  2.77788468879918 1.28341884419328  Z " fill-rule="nonzero" fill="#4285f4" stroke="none" transform="matrix(1 0 0 1 6 6 )" />
  </g>
</svg>