<?xml version="1.0" encoding="utf-8"?>
<svg version="1.1" xmlns:xlink="http://www.w3.org/1999/xlink" width="12px" height="7px" xmlns="http://www.w3.org/2000/svg">
  <defs>
    <mask fill="white" id="clip1399">
      <path d="M 0 1.27272727272727  C 0 0.569819374517961  0.596953630447388 0  1.33333333333333 0  C 1.33333333333333 0  10.6666666666667 0  10.6666666666667 0  C 11.4030463695526 0  12 0.569819374517961  12 1.27272727272727  C 12 1.27272727272727  12 5.72727272727273  12 5.72727272727273  C 12 6.43018062548204  11.4030463695526 7  10.6666666666667 7  C 10.6666666666667 7  1.33333333333333 7  1.33333333333333 7  C 0.596953630447388 7  0 6.43018062548204  0 5.72727272727273  C 0 5.72727272727273  0 1.27272727272727  0 1.27272727272727  Z " fill-rule="evenodd" />
    </mask>
  </defs>
  <g transform="matrix(1 0 0 1 -1130 -51 )">
    <path d="M 0 1.27272727272727  C 0 0.569819374517961  0.596953630447388 0  1.33333333333333 0  C 1.33333333333333 0  10.6666666666667 0  10.6666666666667 0  C 11.4030463695526 0  12 0.569819374517961  12 1.27272727272727  C 12 1.27272727272727  12 5.72727272727273  12 5.72727272727273  C 12 6.43018062548204  11.4030463695526 7  10.6666666666667 7  C 10.6666666666667 7  1.33333333333333 7  1.33333333333333 7  C 0.596953630447388 7  0 6.43018062548204  0 5.72727272727273  C 0 5.72727272727273  0 1.27272727272727  0 1.27272727272727  Z " fill-rule="nonzero" fill="#ffffff" stroke="none" fill-opacity="0" transform="matrix(1 0 0 1 1130 51 )" />
    <path d="M 0 1.27272727272727  C 0 0.569819374517961  0.596953630447388 0  1.33333333333333 0  C 1.33333333333333 0  10.6666666666667 0  10.6666666666667 0  C 11.4030463695526 0  12 0.569819374517961  12 1.27272727272727  C 12 1.27272727272727  12 5.72727272727273  12 5.72727272727273  C 12 6.43018062548204  11.4030463695526 7  10.6666666666667 7  C 10.6666666666667 7  1.33333333333333 7  1.33333333333333 7  C 0.596953630447388 7  0 6.43018062548204  0 5.72727272727273  C 0 5.72727272727273  0 1.27272727272727  0 1.27272727272727  Z " stroke-width="2.66666674613953" stroke="#ffffff" fill="none" transform="matrix(1 0 0 1 1130 51 )" mask="url(#clip1399)" />
  </g>
</svg>