<?xml version="1.0" encoding="utf-8"?>
<svg version="1.1" xmlns:xlink="http://www.w3.org/1999/xlink" width="19px" height="4px" xmlns="http://www.w3.org/2000/svg">
  <g transform="matrix(1 0 0 1 -3 -4 )">
    <path d="M 2.6607470098102 2.15833327538438  L 3.14693609768919 1.18124977027377  L 3.63692386798323 2.15833327538438  L 2.6607470098102 2.15833327538438  Z M 13.3233593611777 1.22187480442227  L 11.4387431797337 1.22187480442227  L 11.4387431797337 1.65260427583836  L 13.2929723167857 1.65260427583836  L 13.2929723167857 2.2979164203836  L 11.4425418621488 2.2979164203836  L 11.4425418621488 2.77812469887238  L 13.3271580435928 2.77812469887238  L 13.3271580435928 3.16302068380433  L 14.6420213688119 1.99374995653828  L 13.3271580435928 0.774999925494197  L 13.3233593611777 1.22187480442227  Z M 4.25162397581614 0  L 4.42065085371533 0.00312477337818252  L 6.94972147613644 0.00312477337818252  L 7.51124486001549 1.01093745188167  L 8.03161967470151 0  L 14.596440802224 0  L 15.2788790486911 0.619791423488004  L 15.9847396859678 0  L 19 0  L 16.7722647503828 2.00625004346172  L 18.9772103204381 4  L 15.9170021510657 4  L 15.2345651120628 3.38020807980664  L 14.5223737399158 4  L 3.81734558566336 4  L 3.50461476934637 3.38020807980664  L 2.78925802976412 3.38020807980664  L 2.4758935966012 4  L 0 4  L 2.08023172318616 0  L 4.25162397581614 0  Z M 9.90484101636457 0.564583120163953  L 8.48742171818853 0.564583120163953  L 7.53783322199242 2.40624984477958  L 6.50911235111331 0.564583120163953  L 5.10245578520254 0.564583120163953  L 5.10245578520254 3.06979157249961  L 3.79835398478443 0.564583120163953  L 2.5366673835191 0.564583120163953  L 1.02872087087912 3.43541638313069  L 2.01312750326397 3.43541638313069  L 2.325858621447 2.81562495964269  L 3.96928020389114 2.81562495964269  L 4.28201102020812 3.43541638313069  L 6.00393166235538 3.43541638313069  L 6.00393166235538 1.38593757605801  L 7.11241761916528 3.43854165321423  L 7.8657575605054 3.43854165321423  L 8.96728127866139 1.39218761951973  L 8.96728127866139 3.43906220042458  L 9.89028020541635 3.43906220042458  L 9.90547372761234 0.564062572953599  L 9.90484101636457 0.564583120163953  Z M 15.8176121492761 2.00625004346172  L 17.4198845587951 0.564583120163953  L 16.266450746645 0.564583120163953  L 15.2529233979619 1.4635418270611  L 14.2729478573738 0.564583120163953  L 10.5416986962437 0.564583120163953  L 10.5416986962437 3.43854165321423  L 14.21977113342 3.43854165321423  L 15.241528558181 2.53333339956071  L 16.221504098769 3.43854165321423  L 17.4084897190142 3.43854165321423  L 15.8182448605239 2.00625004346172  Z " fill-rule="nonzero" fill="#ffffff" stroke="none" transform="matrix(1 0 0 1 3 4 )" />
  </g>
</svg>