<?xml version="1.0" encoding="utf-8"?>
<svg version="1.1" xmlns:xlink="http://www.w3.org/1999/xlink" width="6px" height="6px" xmlns="http://www.w3.org/2000/svg">
  <g transform="matrix(1 0 0 1 -3 -3 )">
    <path d="M 2.48685462101765 1.15260936887714  C 2.83521440348816 1.17719050746948  3.18327202045472 1.01102226786562  3.40277191099153 0.801345162430984  C 3.61486954806197 0.585645675083457  3.75868495764619 0.295956903303944  3.72076722081528 0  C 3.41047625792765 0.0125363802608614  3.03190354478044 0.166537155219727  2.81255470998278 0.382482450784791  C 2.61571481909674 0.567332603915237  2.44153461271181 0.869065949051038  2.48685462101765 1.15260936887714  Z M 3.7168399156658 1.20803986183237  C 3.2107665241004 1.18345872324003  2.78083041152971 1.44156086251904  2.53927478031583 1.44156086251904  C 2.29756807535424 1.44156086251904  1.9276057554412 1.22033068615621  1.52743010866332 1.22635306486409  C 1.00670322988721 1.23249834951217  0.523591877416676 1.47216427130659  0.259225172804308 1.85317190208916  C -0.284312779370278 2.6151871636543  0.115712009762537 3.74591961582219  0.644445418987273 4.36659337947235  C 0.901107722637863 4.67385760729798  1.21049226104783 5.01184837786532  1.61807017930064 4.99968071450935  C 2.00329022738953 4.98739014521319  2.15420575194899 4.79688613660524  2.62221035994861 4.79688613660524  C 3.09006387619198 4.79688613660524  3.22602380206244 4.99968033952252  3.6337527760544 4.99353505487444  C 4.05643738475247 4.98738977022636  4.32080432347602 4.68627082704882  4.57746662712661 4.37900659922319  C 4.87204667661238 4.02872539122318  4.99244666546995 3.69073519847438  5 3.67229934407227  C 4.99244666546995 3.66615405942418  4.18484399072482 3.41407409739492  4.17729065619478 2.65820408522269  C 4.16973732166472 2.02523976418071  4.811468721777 1.72412089929712  4.8416820598972 1.70556214078624  C 4.47927308520679 1.26949273670049  3.91307504333866 1.22033043112854  3.71668835568718 1.20803986183237  Z " fill-rule="nonzero" fill="#000000" stroke="none" transform="matrix(1 0 0 1 3 3 )" />
  </g>
</svg>