<?xml version="1.0" encoding="utf-8"?>
<svg version="1.1" xmlns:xlink="http://www.w3.org/1999/xlink" width="18px" height="18px" xmlns="http://www.w3.org/2000/svg">
  <g transform="matrix(1 0 0 1 -2 -2 )">
    <path d="M 7.32582008445443 0.182941465085838  C 7.32582008445443 0.182941465085838  7.32473145457717 0.182941465085838  7.32473145457717 0.182941465085838  C 7.32473145457717 0.182941465085838  8.40203916599951 0.607335478345075  8.40203916599951 0.607335478345075  C 8.78632444246203 0.758629378691105  9.21367451975925 0.758629378691105  9.59795979622177 0.607335478345075  C 9.59795979622177 0.607335478345075  10.6752675076441 0.182941465085838  10.6752675076441 0.182941465085838  C 11.3094728931622 -0.066489201580906  12.0157172451956 -0.0601274072286361  12.6453264384853 0.200687481197467  C 13.2749356317749 0.461502369623571  13.7787935615545 0.956423938199585  14.0508327078795 1.58126538146613  C 14.0508327078795 1.58126538146613  14.512224975667 2.6422507794583  14.512224975667 2.6422507794583  C 14.6769707745802 3.02089543670247  14.9791043038528 3.3230284470858  15.357748961097 3.48777424599899  C 15.357748961097 3.48777424599899  16.4187334510328 3.94916651378649  16.4187334510328 3.94916651378649  C 17.043837646899 4.22120739514774  17.5389582095446 4.7252472767245  17.7997938048992 5.35510942857713  C 18.0606294002538 5.98497158042975  18.066818112574 6.69148452256817  17.8170582916848 7.32582008445443  C 17.8170582916848 7.32582008445443  17.3926638730432 8.40312779587676  17.3926638730432 8.40312779587676  C 17.2416554429217 8.78709142579726  17.2416554429217 9.21399616630127  17.3926638730432 9.59795979622177  C 17.3926638730432 9.59795979622177  17.8170582916848 10.6752675076441  17.8170582916848 10.6752675076441  C 18.0664889583515 11.3094728931622  18.0601271639992 12.0157172451956  17.7993122755731 12.6453264384853  C 17.538497387147 13.2749356317749  17.0435748942994 13.7787935615545  16.4187334510328 14.0508327078795  C 16.4187334510328 14.0508327078795  15.357748961097 14.512224975667  15.357748961097 14.512224975667  C 14.979042166852 14.6768795473446  14.6768795473446 14.979042166852  14.512224975667 15.357748961097  C 14.512224975667 15.357748961097  14.0508327078795 16.4187334510328  14.0508327078795 16.4187334510328  C 13.7787918265182 17.043837646899  13.2747527232755 17.5389582095446  12.6448905714229 17.7997938048992  C 12.0150284195702 18.0606294002538  11.3085154774318 18.066818112574  10.6741799155456 17.8170582916848  C 10.6741799155456 17.8170582916848  9.59687220412323 17.3926638730432  9.59687220412323 17.3926638730432  C 9.21290857420274 17.2416554429217  8.78600279592001 17.2416554429217  8.40203916599951 17.3926638730432  C 8.40203916599951 17.3926638730432  7.32473145457717 17.8170582916848  7.32473145457717 17.8170582916848  C 6.6905260690591 18.0664889583515  5.98428223591501 18.0601271639992  5.35467304262538 17.7993122755731  C 4.72506384933575 17.538497387147  4.22120566011144 17.0435748942994  3.94916651378649 16.4187334510328  C 3.94916651378649 16.4187334510328  3.48777424599899 15.357748961097  3.48777424599899 15.357748961097  C 3.3230284470858 14.9791043038528  3.02089543670247 14.6769707745802  2.6422507794583 14.512224975667  C 2.6422507794583 14.512224975667  1.58126538146613 14.0508327078795  1.58126538146613 14.0508327078795  C 0.956161185599921 13.7787918265182  0.461042714727083 13.2747527232755  0.200207119372457 12.6448905714229  C -0.0606284759821682 12.0150284195702  -0.0668183558033566 11.3085154774318  0.182941465085838 10.6741799155456  C 0.182941465085838 10.6741799155456  0.607335478345075 9.59687220412323  0.607335478345075 9.59687220412323  C 0.758343908466648 9.21290857420274  0.758343908466648 8.78600279592001  0.607335478345075 8.40203916599951  C 0.607335478345075 8.40203916599951  0.182941465085838 7.32473145457717  0.182941465085838 7.32473145457717  C -0.066489201580906 6.6905260690591  -0.0601274072286361 5.98428223591501  0.200687481197467 5.35467304262538  C 0.461502369623571 4.72506384933575  0.956423938199585 4.22120566011144  1.58126538146613 3.94916651378649  C 1.58126538146613 3.94916651378649  2.6422507794583 3.48777424599899  2.6422507794583 3.48777424599899  C 3.02089543670247 3.3230284470858  3.3230284470858 3.02089543670247  3.48777424599899 2.6422507794583  C 3.48777424599899 2.6422507794583  3.94916651378649 1.58126538146613  3.94916651378649 1.58126538146613  C 4.22120739514774 0.956161185599921  4.7252472767245 0.461042714727083  5.35510942857713 0.200207119372457  C 5.98497158042975 -0.0606284759821682  6.69148452256817 -0.0668183558033566  7.32582008445443 0.182941465085838  Z M 11.0724575949201 1.19604633116972  C 11.0724575949201 1.19604633116972  11.0735451870187 1.19495796073714  11.0735451870187 1.19495796073714  C 11.0735451870187 1.19495796073714  9.99623747559635 1.61935211993401  9.99623747559635 1.61935211993401  C 9.35597645666369 1.87131824216659  8.64402250555759 1.87131824216659  8.00376148662493 1.61935211993401  C 8.00376148662493 1.61935211993401  6.9264537752026 1.19495796073714  6.9264537752026 1.19495796073714  C 6.55449143999754 1.0487524353928  6.1403112935462 1.05257163945054  5.77110821737405 1.20561127818708  C 5.4019051412019 1.35865091692362  5.10648326743246 1.64897162182559  4.94703667475404 2.01545331788811  C 4.94703667475404 2.01545331788811  4.48564388807718 3.07643871588029  4.48564388807718 3.07643871588029  C 4.2110675511501 3.70751312300019  3.70751312300019 4.2110675511501  3.07643871588029 4.48564388807718  C 3.07643871588029 4.48564388807718  2.01545331788811 4.94703667475404  2.01545331788811 4.94703667475404  C 1.64890533370985 5.10668571535932  1.35863183152435 5.40237337398812  1.20578303056524 5.77180871801004  C 1.05293422960612 6.14124406203195  1.04944351494384 6.55558428585084  1.19604633116972 6.92754240507986  C 1.19604633116972 6.92754240507986  1.61935211993401 8.00376148662493  1.61935211993401 8.00376148662493  C 1.87131824216659 8.64402250555759  1.87131824216659 9.35597645666369  1.61935211993401 9.99623747559635  C 1.61935211993401 9.99623747559635  1.19495796073714 11.0735451870187  1.19495796073714 11.0735451870187  C 0.891352974746577 11.8461599636155  1.25372042950433 12.7210648915539  2.01545331788811 13.0529628063566  C 2.01545331788811 13.0529628063566  3.07643871588029 13.5143550741441  3.07643871588029 13.5143550741441  C 3.70751312300019 13.7889314110712  4.2110675511501 14.2924866175551  4.48564388807718 14.923561024675  C 4.48564388807718 14.923561024675  4.94703667475404 15.9845455146108  4.94703667475404 15.9845455146108  C 5.10668571535932 16.3510934987891  5.40237337398812 16.6413675198639  5.77180871801004 16.7942163208231  C 6.14124406203195 16.9470651217822  6.55558428585084 16.9505555769998  6.92754240507986 16.8039527607739  C 6.92754240507986 16.8039527607739  8.00376148662493 16.3795593799111  8.00376148662493 16.3795593799111  C 8.64402250555759 16.1275932576785  9.35597645666369 16.1275932576785  9.99623747559635 16.3795593799111  C 9.99623747559635 16.3795593799111  11.0735451870187 16.8039527607739  11.0735451870187 16.8039527607739  C 11.8461599636155 17.1086459226135  12.7210648915539 16.7462784029946  13.0529628063566 15.9845455146108  C 13.0529628063566 15.9845455146108  13.5143550741441 14.923561024675  13.5143550741441 14.923561024675  C 13.7889314110712 14.2924866175551  14.2924866175551 13.7889314110712  14.923561024675 13.5143550741441  C 14.923561024675 13.5143550741441  15.9845455146108 13.0529628063566  15.9845455146108 13.0529628063566  C 16.3510934987891 12.8933137657513  16.6413675198639 12.5976266260119  16.7942163208231 12.22819128199  C 16.9470651217822 11.858755937968  16.9505555769998 11.4444157141492  16.8039527607739 11.0724575949201  C 16.8039527607739 11.0724575949201  16.3795593799111 9.99623747559635  16.3795593799111 9.99623747559635  C 16.1275932576785 9.35597645666369  16.1275932576785 8.64402250555759  16.3795593799111 8.00376148662493  C 16.3795593799111 8.00376148662493  16.8039527607739 6.9264537752026  16.8039527607739 6.9264537752026  C 16.9502264389926 6.5546257674806  16.9465649773003 6.14055471751721  16.7937368670544 5.77137233205829  C 16.6409087568086 5.40218994659937  16.3508306813282 5.10668391546185  15.9845455146108 4.94703667475404  C 15.9845455146108 4.94703667475404  14.923561024675 4.48564388807718  14.923561024675 4.48564388807718  C 14.2924866175551 4.2110675511501  13.7889314110712 3.70751312300019  13.5143550741441 3.07643871588029  C 13.5143550741441 3.07643871588029  13.0529628063566 2.01545331788811  13.0529628063566 2.01545331788811  C 12.8933137657513 1.64890533370985  12.5976266260119 1.35863183152435  12.22819128199 1.20578303056524  C 11.858755937968 1.05293422960612  11.4444157141492 1.04944351494384  11.0724575949201 1.19604633116972  Z M 6.12010541756237 9.1594194158482  L 7.88841341967806 10.9277279368532  C 7.88841341967806 10.9277279368532  11.8581308060116 6.46179665556205  11.8581308060116 6.46179665556205  C 11.9487179348356 6.36156104664135  12.0733565211896 6.29861349905065  12.2077937412488 6.28520303967693  C 12.342230961308 6.27179258030321  12.476849200785 6.30887858287338  12.5854517952361 6.38924450746964  C 12.6940543896872 6.46961043206591  12.7688732431145 6.58750725111847  12.7953477302453 6.71999236886715  C 12.8218222173762 6.85247748661583  12.7980583758313 6.99007359159158  12.7286818630526 7.10600506043966  C 12.7286818630526 7.10600506043966  12.6710083484686 7.18544287033912  12.6710083484686 7.18544287033912  C 12.6710083484686 7.18544287033912  8.31824891214846 12.0822972361992  8.31824891214846 12.0822972361992  C 8.23041441030271 12.1810494053009  8.10963925521677 12.2444556439916  7.97847600811266 12.2606758314827  C 7.84731276100855 12.2768960189738  7.7147296542473 12.2448214995018  7.60548484502908 12.1704409717806  C 7.60548484502908 12.1704409717806  7.52713462722815 12.1051491236132  7.52713462722815 12.1051491236132  C 7.52713462722815 12.1051491236132  5.3507549090681 9.92876940545311  5.3507549090681 9.92876940545311  C 5.25435872467488 9.83280305603348  5.19740377962992 9.70421107596869  5.19111444635255 9.56833536488127  C 5.18482511307518 9.43245965379385  5.22965754801254 9.2991563772468  5.31677647710793 9.1946955900977  C 5.40389540620331 9.09023480294859  5.52698175935981 9.02219395394766  5.66177822922433 9.00398195694856  C 5.79657469908885 8.98576995994945  5.93330381291289 9.01870813427681  6.0450200516145 9.09630482743527  C 6.0450200516145 9.09630482743527  6.12010541756237 9.1594194158482  6.12010541756237 9.1594194158482  Z " fill-rule="nonzero" fill="#ffffff" stroke="none" transform="matrix(1 0 0 1 2 2 )" />
  </g>
</svg>