<?xml version="1.0" encoding="utf-8"?>
<svg version="1.1" xmlns:xlink="http://www.w3.org/1999/xlink" width="15px" height="14px" xmlns="http://www.w3.org/2000/svg">
  <g transform="matrix(1 0 0 1 -2 -1 )">
    <path d="M 14.5151845119168 4.92979857790846  L 10.0184765943801 4.29107213187026  C 10.0184765943801 4.29107213187026  8.00832866416003 0.308118419951451  8.00832866416003 0.308118419951451  C 7.95342596181217 0.199067541971457  7.86310216008568 0.110788247612862  7.751525693665 0.0571282950567894  C 7.47169900519584 -0.0778870768942612  7.13165602384161 0.0346257468214316  6.99174267960703 0.308118419951451  C 6.99174267960703 0.308118419951451  4.98159528987009 4.29107213187026  4.98159528987009 4.29107213187026  C 4.98159528987009 4.29107213187026  0.484887237212621 4.92979857790846  0.484887237212621 4.92979857790846  C 0.360913389387435 4.94710824055583  0.247565802126441 5.00422991599256  0.160784106959801 5.09077822922942  C 0.0558698546010424 5.19617071062958  -0.00194268487653391 5.33796091704627  4.98479731552714E-05 5.48499195589996  C 0.00204238082284445 5.63202299475366  0.0636769554002368 5.77226655418171  0.171410409749234 5.87490626410472  C 0.171410409749234 5.87490626410472  3.42483835051769 8.97506642164969  3.42483835051769 8.97506642164969  C 3.42483835051769 8.97506642164969  2.65620060209816 13.352680527769  2.65620060209816 13.352680527769  C 2.638175740383 13.4545132713407  2.64970544375688 13.5592452186581  2.68948219918964 13.6549995332543  C 2.72925895462239 13.7507538478505  2.79569122944588 13.833699276047  2.88124586755642 13.8944304974136  C 2.96680050566696 13.9551617187801  3.06805404076414 13.9912488122445  3.17352506670462 13.9985990836993  C 3.27899609264511 14.0059493551541  3.38446441617017 13.9842688938813  3.47796999958563 13.936016370285  C 3.47796999958563 13.936016370285  7.50003567188353 11.8692422275897  7.50003567188353 11.8692422275897  C 7.50003567188353 11.8692422275897  11.522101614423 13.936016370285  11.522101614423 13.936016370285  C 11.6319070191187 13.993138256196  11.7594238433437 14.0121780415605  11.8816266378889 13.9914064455582  C 12.1897901957269 13.9394774576161  12.3970032014615 13.6538686512302  12.3438715523935 13.352680527769  C 12.3438715523935 13.352680527769  11.5752332634909 8.97506642164969  11.5752332634909 8.97506642164969  C 11.5752332634909 8.97506642164969  14.8286614576108 5.87490626410472  14.8286614576108 5.87490626410472  C 14.9172142060574 5.79008891548182  14.9756588038389 5.67930675924004  14.9933693535282 5.55813912070844  C 15.0411878385338 5.25522002437944  14.8251191314797 4.97480369914085  14.5151845119168 4.92979857790846  Z " fill-rule="nonzero" fill="#ffc000" stroke="none" transform="matrix(1 0 0 1 2 1 )" />
  </g>
</svg>