<?xml version="1.0" encoding="utf-8"?>
<svg version="1.1" xmlns:xlink="http://www.w3.org/1999/xlink" width="24px" height="14px" xmlns="http://www.w3.org/2000/svg">
  <g>
    <path d="M 22.0967743600787 0.000528481411657832  C 22.014851218829 0  21.9326371804311 0  21.8507140391814 0  C 21.8507140391814 0  2.14928623737783 0  2.14928623737783 0  C 2.06721810128412 0  1.98500497034639 0  1.90308182909669 0.000396361043362541  C 1.83391839832722 0.000924842455020373  1.76489991918938 0.00158544417345016  1.69573648841991 0.00330300871519562  C 1.54508490093278 0.00700237853527711  1.39312836849201 0.0151938391547452  1.24436173990448 0.0395039829835855  C 1.09516727411376 0.0627953988934375  0.950613714998658 0.106211117929999  0.815461511982761 0.168321328044174  C 0.543761518693932 0.294242422445155  0.322919100004204 0.495473034858812  0.18472581659658 0.743044839074159  C 0.116440660312011 0.866241991453903  0.0687882565025539 0.998062568863381  0.0433540157997394 1.13412100716593  C 0.0163846269535687 1.26980859661228  0.0075398291165572 1.40813866922127  0.00347992108916833 1.54527958739464  C 0.00171278832543495 1.60824545414839  0.000649423977942346 1.67122612587645  0.000289993435350587 1.73421172340845  C 0 1.80872760029889  0 1.8835076593557  0 1.95841989218307  C 0 1.95841989218307  0 12.0415803598165  0 12.0415803598165  C 0 12.1164925926439  0 12.1911402653055  0.000289993435350587 12.2660524981329  C 0.000724983571496629 12.3289417845821  0.00159496381002904 12.3919632290518  0.00347992108916833 12.4549846341467  C 0.0075398291165572 12.5918613150288  0.0165296239582012 12.7303235141584  0.0433540157997394 12.8658789928341  C 0.0687360580994349 13.0019317768964  0.116339776672852 13.1337528346801  0.18458081311009 13.2569550979259  C 0.253190969758796 13.3800006646938  0.34274751006768 13.492373286115  0.449924782790343 13.5898989359354  C 0.556918575716952 13.6875974417058  0.680249589447752 13.7692059801584  0.815316525781225 13.8316794122045  C 0.952628414769593 13.8954935409857  1.09327522838265 13.9360541384475  1.24450679524584 13.9607606441195  C 1.39312842034687 13.984938667334  1.54508490093278 13.9931304756833  1.69573648841991 13.9968298455034  C 1.76489991918938 13.9982831693085  1.83391839832722 13.9990754478736  1.90308182909669 13.9994718089169  C 1.98500497034639 14.0000002903286  2.06721810128412 14  2.14928623737783 14  C 2.14928623737783 14  21.8507140391814 14  21.8507140391814 14  C 21.9326371804311 14  22.014851218829 14.0000002903286  22.0967743600787 13.9994718089169  C 22.1657927960042 13.9992075682111  22.2348111930385 13.9982831693085  22.3042646178172 13.9968298455034  C 22.4546261983314 13.9931304756833  22.6065815035403 13.984938667334  22.7556381218159 13.9607606441195  C 22.9048649104722 13.9374471132793  23.0494301196469 13.893939542371  23.1845395251145 13.8316794122045  C 23.4561030709695 13.7055871156008  23.676892718692 13.5044025718571  23.8152738895592 13.2569550979259  C 23.8853073023565 13.1318371261307  23.9296761524271 13.0036805121106  23.9565005442687 12.8658789928341  C 23.9834699331148 12.7303235141584  23.9921700358938 12.5918613150288  23.9962299439212 12.4549846341467  C 23.9981149012003 12.3919632290518  23.9991303383178 12.3289417845821  23.9994203317531 12.2660524981329  C 24.0000003186238 12.1911402653055  24 12.1164925926439  24 12.0415803598165  C 24 12.0415803598165  24 1.95855206595361  24 1.95855206595361  C 24 1.88363983312625  24.0000003186238 1.80885966381962  23.9994203317531 1.7340795496379  C 23.9991396471944 1.67113726453071  23.9980758095193 1.60819991310245  23.9962299439212 1.54527958739464  C 23.9921700358938 1.40813866922127  23.9834699331148 1.26980859661228  23.9565005442687 1.13412100716593  C 23.9312466331789 0.998039290403792  23.8836368756743 0.866201049399978  23.8152738895592 0.743044839074159  C 23.677015139385 0.495516347283621  23.4561919847774 0.294302075466597  23.1845395251145 0.168321328044174  C 23.0493709791738 0.106275035256539  22.9048196066055 0.0629048572659178  22.7556381218159 0.0396361055667207  C 22.6065815035403 0.0151938411234918  22.4546261983314 0.0071344989035724  22.3042646178172 0.00343512908349091  C 22.2351135760391 0.00183479269565926  22.1659467098849 0.000865861483680871  22.0967743600787 0.000528481411657832  Z " fill-rule="nonzero" fill="#e4e4e4" stroke="none" />
  </g>
</svg>