<?xml version="1.0" encoding="utf-8"?>
<svg version="1.1" xmlns:xlink="http://www.w3.org/1999/xlink" width="18px" height="7px" xmlns="http://www.w3.org/2000/svg">
  <g transform="matrix(1 0 0 1 -3 -3 )">
    <path d="M 10.5256687498183 2.06631075600056  C 10.5256687498183 3.10659149527513  9.77803632448487 3.84875795568142  8.73376385611715 3.84875795568142  C 8.73376385611715 3.84875795568142  7.74983455583424 3.84875795568142  7.74983455583424 3.84875795568142  C 7.73358792300773 3.84899666646117  7.71775611188475 3.85383053501095  7.70423658219546 3.86267991491282  C 7.69071705250618 3.87152929481469  7.68008409708668 3.88401867179471  7.6736109690155 3.89865146924936  C 7.66945164066336 3.90832402831662  7.66729229922843 3.91871186436729  7.66725880152192 3.92921114222364  C 7.66725880152192 3.92921114222364  7.66725880152192 5.29629525779573  7.66725880152192 5.29629525779573  C 7.66725912645666 5.30691322747142  7.66511874268799 5.31742593196737  7.66096115387142 5.32722785632382  C 7.65680356505485 5.33702978068028  7.65071137131557 5.34592680842461  7.64303502947033 5.35340580273521  C 7.63535868762509 5.36088479704582  7.62625048290657 5.36679794436332  7.61623549772174 5.37080423702567  C 7.60622051253692 5.37481052968802  7.59549703560237 5.37683075418448  7.58468304720961 5.37674844433795  C 7.58468304720961 5.37674844433795  6.89612347761752 5.37674844433795  6.89612347761752 5.37674844433795  C 6.87422288505245 5.37674844433795  6.85321938881922 5.36820624731686  6.83773333146665 5.35300135396872  C 6.82224727411407 5.33779646062057  6.81354711752917 5.31717430270824  6.81354711752917 5.29567133609565  C 6.81354711752917 5.29567133609565  6.81354711752917 0.365563842790085  6.81354711752917 0.365563842790085  C 6.81328808541941 0.349501187211931  6.81800975007359 0.333740740222228  6.82708560611527 0.320374127854242  C 6.83616146215694 0.307007515486256  6.84916237420535 0.296666751668086  6.86436324592569 0.290723572438176  C 6.87442186828178 0.286590588662474  6.88521959182466 0.284470133634662  6.89612347761752 0.284486734547784  C 6.89612347761752 0.284486734547784  8.73821025220745 0.284486734547784  8.73821025220745 0.284486734547784  C 9.77803624876287 0.284486734547784  10.5256687498183 1.02665334364848  10.5256687498183 2.06693408292304  Z M 9.66687581645148 2.06631075600056  C 9.66687581645148 1.46883535855105  9.24891204727665 1.03226670592199  8.68231166288483 1.03226670592199  C 8.68231166288483 1.03226670592199  7.74983455583424 1.03226670592199  7.74983455583424 1.03226670592199  C 7.73899048332581 1.03226670592199  7.728253471083 1.03436361583397  7.71823485479145 1.03843811827662  C 7.70821623849989 1.04251262071927  7.69911293264009 1.04848450261498  7.6914450154594 1.05601320151362  C 7.68377709827872 1.06354190041227  7.67769418048496 1.07247992715222  7.67354433365175 1.08231664599815  C 7.66939448681854 1.09215336484407  7.66725880152192 1.10269662603911  7.66725880152192 1.11334381416429  C 7.66725880152192 1.11334381416429  7.66725880152192 3.01553520849716  7.66725880152192 3.01553520849716  C 7.6671395044621 3.02620219388762  7.66921603016815 3.03678299461015  7.67336381239359 3.04664267163901  C 7.67751159461902 3.05650234866787  7.68364522130936 3.06543771226789  7.69139655337668 3.07291280857805  C 7.69905318620399 3.08046640681856  7.70816167724635 3.08645159541092  7.71819366202113 3.09052000980533  C 7.72822564679591 3.09458842419975  7.73898060397057 3.09665905299377  7.74983455583424 3.09661231673946  C 7.74983455583424 3.09661231673946  8.68231166288483 3.09661231673946  8.68231166288483 3.09661231673946  C 9.24891204727665 3.09973066424165  9.66687581645148 2.66316249196519  9.66687581645148 2.06631075600056  Z M 10.7302041815239 4.43064136992575  C 10.7229498035053 4.27086174723991  10.7567972903562 4.11186168282337  10.8286234022321 3.96831063194695  C 10.9004495141079 3.82475958107052  11.0079403208466 3.7012816793418  11.1411796047863 3.60926897159979  C 11.4098701449238 3.41218939598636  11.8297389850734 3.30990764391706  12.44652034169 3.28870287927587  C 12.44652034169 3.28870287927587  13.1026836147544 3.26625061973701  13.1026836147544 3.26625061973701  C 13.1026836147544 3.26625061973701  13.1026836147544 3.07727847614581  13.1026836147544 3.07727847614581  C 13.1026836147544 2.69871108508251  12.8422514110543 2.53905173757903  12.4242883612385 2.53905173757903  C 12.0063253114227 2.53905173757903  11.7414459354818 2.68311977100213  11.6811017262194 2.91949052200656  C 11.6759584989764 2.93609544398767  11.665402951559 2.95058179836901  11.6510576580322 2.96072288419553  C 11.6367123645054 2.97086397002204  11.6193715120394 2.97609785398721  11.6017014498778 2.97562027868729  C 11.6017014498778 2.97562027868729  10.9525251975907 2.97562027868729  10.9525251975907 2.97562027868729  C 10.9346578902564 2.97584626923474  10.9171968409402 2.97037579469191  10.9027655425976 2.96002996829411  C 10.888334244255 2.9496841418963  10.8777105588653 2.93502182163331  10.8724888564133 2.918243273384  C 10.8690517015347 2.90713761860503  10.8681838281287 2.89541834153648  10.8699482317263 2.88394125976444  C 10.966498964653 2.32388603466449  11.4441706794842 1.89854362332565  12.454142215751 1.89854362332565  C 13.5289043763011 1.89854362332565  13.9170137987704 2.38687669963009  13.9170137987704 3.31801530362759  C 13.9170137987704 3.31801530362759  13.9170137987704 5.29629525779573  13.9170137987704 5.29629525779573  C 13.9169312584211 5.30699562856389  13.9146918763874 5.3175739165834  13.9104253786235 5.32742056426551  C 13.9061588808596 5.33726721194762  13.8999496771016 5.34618725944366  13.892155173435 5.35366631532304  C 13.8843606697684 5.36114537120242  13.8751344960831 5.36703534600795  13.865010349347 5.37099694496735  C 13.8548862026109 5.37495854392675  13.8440643817234 5.37691337702981  13.8331671263385 5.37674844433795  C 13.8331671263385 5.37674844433795  13.1789084131253 5.37674844433795  13.1789084131253 5.37674844433795  C 13.1570078205602 5.37674844433795  13.1360037185509 5.36820624731686  13.1205176611983 5.35300135396872  C 13.1050316038458 5.33779646062057  13.0963326588129 5.31717430270824  13.0963326588129 5.29567133609565  C 13.0963326588129 5.29567133609565  13.0963326588129 5.14848529263695  13.0963326588129 5.14848529263695  C 13.0965402738331 5.13627435985999  13.0929396682018 5.12429312507992  13.0860138698481 5.11414878191672  C 13.0790880714944 5.10400443875352  13.0691678145369 5.09618243550526  13.0575848005678 5.09173161425614  C 13.0461210475722 5.08730072444575  13.0335917629284 5.08623831733743  13.0215241648099 5.08867445740351  C 13.0094565666913 5.0911105974696  12.9983712864709 5.09694033260176  12.9896179410938 5.10545253865948  C 12.7927052542523 5.31375815110835  12.4763743476465 5.46406239047064  11.9688477655211 5.46406239047064  C 11.2224851981991 5.46406239047064  10.7302041815239 5.08549433028255  10.7302041815239 4.43064136992575  Z M 12.2006964270522 4.8316612435695  C 12.7679320054768 4.8316612435695  13.1026836147544 4.53229993912026  13.1026836147544 4.00218083703051  C 13.1026836147544 4.00218083703051  13.1026836147544 3.84875795568142  13.1026836147544 3.84875795568142  C 13.1026836147544 3.84875795568142  12.2521486202845 3.89241463135897  12.2521486202845 3.89241463135897  C 11.8043310723192 3.91486673291002  11.543898300704 4.0957308775816  11.543898300704 4.40132894557403  C 11.543898300704 4.67823821352601  11.7827333772364 4.8316612435695  12.2006964270522 4.8316612435695  Z M 14.5738119251185 6.8710605436862  C 14.5738119251185 6.8710605436862  14.5738119251185 6.29790786979978  14.5738119251185 6.29790786979978  C 14.5739709212693 6.28589776391105  14.5768457709961 6.27407292543565  14.5822285773363 6.26328705538781  C 14.5876113836766 6.25250118533997  14.5953687386011 6.24302470771859  14.6049379093027 6.23554187000626  C 14.6144333427447 6.22799841435014  14.6254923977137 6.22258302850484  14.6373420809188 6.2196743932525  C 14.6491917641238 6.21676575800017  14.6615457937382 6.21643384668896  14.6735396220604 6.21870252665772  C 14.7739015759752 6.23678894205422  14.8755339842122 6.2461443754644  14.9778015391557 6.2461443754644  C 15.1529694030602 6.25556756298788  15.3262634313167 6.20678599020486  15.4697377178236 6.10766825514769  C 15.6132120043305 6.00855052009052  15.7185022160423 5.86487373880597  15.7686276130486 5.699809033907  C 15.7686276130486 5.699809033907  15.8111858025482 5.56821508517428  15.8111858025482 5.56821508517428  C 15.8175285456102 5.5504507639188  15.8175285456102 5.53109630359397  15.8111858025482 5.5133319823385  C 15.8111858025482 5.5133319823385  14.4486779813066 2.1012360965426  14.4486779813066 2.1012360965426  C 14.4407811145049 2.08251021274956  14.440313905006 2.06155927177157  14.4473682935208 2.04251191998032  C 14.4544226820357 2.02346456818907  14.4684867038113 2.00770226019603  14.4867897747159 1.99833065046153  C 14.498922265409 1.99204937734087  14.5124573973806 1.98883402971336  14.5261724862448 1.98897539362594  C 14.5261724862448 1.98897539362594  15.1867821553996 1.98897539362594  15.1867821553996 1.98897539362594  C 15.2037370303299 1.98901944212733  15.220280583333 1.99410950165245  15.2342289574944 2.00357361498602  C 15.2481773316559 2.01303772831959  15.2588758002154 2.02643120616436  15.2649127251737 2.04198732613907  C 15.2649127251737 2.04198732613907  16.1897667466112 4.44872796189685  16.1897667466112 4.44872796189685  C 16.195484359568 4.46488541828637  16.2062222810664 4.47887367430977  16.2204674760193 4.48872021279443  C 16.2347126709723 4.49856675127909  16.2517466079571 4.50377509443999  16.2691670229527 4.50361106473262  C 16.2865437865792 4.50359106125642  16.3034917305798 4.4983102650568  16.3177005872528 4.48848884430889  C 16.3319094439257 4.47866742356099  16.3426879512353 4.46478300618043  16.3485672992943 4.44872796189685  C 16.3485672992943 4.44872796189685  17.1520977081743 2.04884808572954  17.1520977081743 2.04884808572954  C 17.1575442008611 2.03230222679024  17.1682647595406 2.01791354720421  17.1826760708236 2.00780664714946  C 17.1970873821065 1.99769974709472  17.214426709484 1.99241005669839  17.2321340493516 1.99271773427121  C 17.2321340493516 1.99271773427121  17.9156105522416 1.99271773427121  17.9156105522416 1.99271773427121  C 17.9361184231106 1.9928358227456  17.9558932730332 2.0002197663395  17.9712983315043 2.01351175386744  C 17.9867033899755 2.02680374139537  17.9967027412285 2.04511007580865  17.9994572246734 2.065063507378  C 18.0009943846137 2.07837115312321  17.9992519399536 2.09184644948044  17.9943759752994 2.1043545154878  C 17.9943759752994 2.1043545154878  16.5365868532062 5.89377076676604  16.5365868532062 5.89377076676604  C 16.2012000877568 6.7750157828484  15.6263430896032 6.99953607347373  14.9930464988299 6.99953607347373  C 14.8728621143613 7.00279001400475  14.7528312846521 6.98892519466221  14.6366975352185 6.9583738950413  C 14.6172263376319 6.95368059040027  14.6001130428035 6.94229237153786  14.5884595896231 6.92627374808875  C 14.5768061364427 6.91025512463963  14.5713837973004 6.89066698758104  14.5731770718348 6.8710605436862  Z M 2.38745785144972 9.35246115580362E-05  C 1.5207236486079 -0.00626683127693667  0.684113405400433 0.311997614729412  0.0480083612110903 0.890069954342323  C 0.0209405251045872 0.914239792182583  0.00404602227827447 0.947466368911442  0.000638188971129728 0.983233538149247  C -0.00276964433601501 1.01900070738705  0.00755489321565169 1.05472777560401  0.0295873177901411 1.08340746811249  C 0.0295873177901411 1.08340746811249  0.422142298675047 1.60666603365337  0.422142298675047 1.60666603365337  C 0.434861812374579 1.62430989966686  0.451383456872171 1.6389863644846  0.470532899831029 1.64965239497821  C 0.489682342789887 1.66031842547182  0.510989645169465 1.66671255154286  0.532940249752036 1.66837956242212  C 0.554890854334607 1.67004657330139  0.57694590085787 1.66694580629817  0.597538085812348 1.65929790328152  C 0.618130270766827 1.65165000026486  0.636753889479679 1.63964226361228  0.652085491690907 1.62412870392439  C 0.880709304504497 1.40122656151424  1.15222503262104 1.22522266056977  1.45081451972461 1.10637064160784  C 1.74940400682817 0.987518622645902  2.06909733010271 0.928195095842635  2.39126939425627 0.931855757086032  C 3.73789800831609 0.931855757086032  4.44106707852257 1.91974789076994  4.44106707852257 2.89641434076763  C 4.44106707852257 3.95665254494713  3.70232691531574 4.70380889317173  2.64026878686484 4.71815329203028  C 1.81958749546341 4.71815329203028  1.20090040530455 4.18803418994053  1.20090040530455 3.48702968492506  C 1.20160426728966 3.30976893527588  1.24263385912954 3.13490138481218  1.32099126363265 2.97520512392404  C 1.39934866813576 2.81550886303589  1.51305411701042 2.67501822170208  1.65379946767094 2.563998494363  C 1.68376684366573 2.53986368102385  1.70279117109779 2.50506771390273  1.70671854756984 2.46720810545917  C 1.7106459240419 2.4293484970156  1.69915729133952 2.39150140213508  1.67476113577891 2.36193009154052  C 1.67476113577891 2.36193009154052  1.26187963822517 1.85363910424794  1.26187963822517 1.85363910424794  C 1.24941409257846 1.83801155636277  1.23385804679713 1.82502148119616  1.2161468794188 1.81544962424925  C 1.19843571204047 1.80587776730235  1.17893560994512 1.79992206405431  1.15881956731976 1.7979411561032  C 1.13870352469439 1.7959602481521  1.11838722458035 1.79799507002059  1.09909277634964 1.80392283440415  C 1.07979832811893 1.8098505987877  1.061924408124 1.8195490219679  1.04654624871172 1.83243468810925  C 0.793672255797546 2.03159840159893  0.589251154853114 2.28365698793579  0.448185821933077 2.57023533225339  C 0.307624504138662 2.85617521999336  0.234459545811528 3.16952680875054  0.234122441875116 3.48702968492506  C 0.234122441875117 4.69383015955759  1.28538223390817 5.63993698885636  2.63201084796798 5.64742102309394  C 2.63201084796798 5.64742102309394  2.65106674467267 5.64742102309394  2.65106674467267 5.64742102309394  C 4.24987068364383 5.62746359768595  5.4059386647727 4.47242732136386  5.4059386647727 2.89391984352251  C 5.4059386647727 1.49253445780287  4.34705669579058 9.35246115580362E-05  2.38745785144972 9.35246115580362E-05  Z " fill-rule="nonzero" fill="#ffffff" stroke="none" transform="matrix(1 0 0 1 3 3 )" />
  </g>
</svg>