<?xml version="1.0" encoding="utf-8"?>
<svg version="1.1" xmlns:xlink="http://www.w3.org/1999/xlink" width="6px" height="6px" xmlns="http://www.w3.org/2000/svg">
  <g transform="matrix(1 0 0 1 -9 -2 )">
    <path d="M 5.95488733018501 1.8000001040372  C 6.07518809075825 1.25454555858265  5.95488711507049 0.872727285731923  5.59398482438768 0.545454545454545  C 5.23308253370486 0.163636370138689  4.57142927823342 0  3.72932398111008 0  C 3.72932398111008 0  1.26315819665196 0  1.26315819665196 0  C 1.08270705131055 0  0.96240607114124 0.109090902588584  0.902255690854621 0.272727272727273  C 0.902255690854621 0.272727272727273  0 5.78181838989258  0 5.78181838989258  C 0 5.89090930060907  0.060150492325431 6  0.180451252898668 6  C 0.180451252898668 6  1.80451138170924 6  1.80451138170924 6  L 2.04511266981499 4.14545475352894  L 3.127820187207 2.94545433738015  L 5.95488733018501 1.8000001040372  Z " fill-rule="nonzero" fill="#003087" stroke="none" transform="matrix(1 0 0 1 9 2 )" />
  </g>
</svg>