<?xml version="1.0" encoding="utf-8"?>
<svg version="1.1" xmlns:xlink="http://www.w3.org/1999/xlink" width="9px" height="6px" xmlns="http://www.w3.org/2000/svg">
  <defs>
    <mask fill="white" id="clip1398">
      <path d="M 0 1.09090909090909  C 0 0.488416606729681  0.447715222835541 0  1 0  C 1 0  8 0  8 0  C 8.55228477716446 0  9 0.488416606729681  9 1.09090909090909  C 9 1.09090909090909  9 4.90909090909091  9 4.90909090909091  C 9 5.51158339327032  8.55228477716446 6  8 6  C 8 6  1 6  1 6  C 0.447715222835541 6  0 5.51158339327032  0 4.90909090909091  C 0 4.90909090909091  0 1.09090909090909  0 1.09090909090909  Z " fill-rule="evenodd" />
    </mask>
  </defs>
  <g transform="matrix(1 0 0 1 -1 -5 )">
    <path d="M 0 1.09090909090909  C 0 0.488416606729681  0.447715222835541 0  1 0  C 1 0  8 0  8 0  C 8.55228477716446 0  9 0.488416606729681  9 1.09090909090909  C 9 1.09090909090909  9 4.90909090909091  9 4.90909090909091  C 9 5.51158339327032  8.55228477716446 6  8 6  C 8 6  1 6  1 6  C 0.447715222835541 6  0 5.51158339327032  0 4.90909090909091  C 0 4.90909090909091  0 1.09090909090909  0 1.09090909090909  Z " fill-rule="nonzero" fill="#ffffff" stroke="none" fill-opacity="0" transform="matrix(1 0 0 1 1 5 )" />
    <path d="M 0 1.09090909090909  C 0 0.488416606729681  0.447715222835541 0  1 0  C 1 0  8 0  8 0  C 8.55228477716446 0  9 0.488416606729681  9 1.09090909090909  C 9 1.09090909090909  9 4.90909090909091  9 4.90909090909091  C 9 5.51158339327032  8.55228477716446 6  8 6  C 8 6  1 6  1 6  C 0.447715222835541 6  0 5.51158339327032  0 4.90909090909091  C 0 4.90909090909091  0 1.09090909090909  0 1.09090909090909  Z " stroke-width="2.66666674613953" stroke="#696969" fill="none" transform="matrix(1 0 0 1 1 5 )" mask="url(#clip1398)" />
  </g>
</svg>