<?xml version="1.0" encoding="utf-8"?>
<svg version="1.1" xmlns:xlink="http://www.w3.org/1999/xlink" width="17px" height="21px" xmlns="http://www.w3.org/2000/svg">
  <g transform="matrix(1 0 0 1 -3 -1 )">
    <path d="M 10.0835669390179 3.35666717251523  C 10.0835669390179 3.35666717251523  10.1016969946694 3.33755279879438  10.1016969946694 3.33755279879438  C 10.2079127617214 3.2321268362775  10.267582086926 3.08915777201036  10.267582086926 2.94008545079123  C 10.267582086926 2.7910131295721  10.2079127617214 2.64804379723246  10.1016969946694 2.54261783471558  C 10.1016969946694 2.54261783471558  7.69830130171853 0.157813009497324  7.69830130171853 0.157813009497324  C 7.59144468422104 0.055405786311161  7.44832722935914 -0.00125964951354913  7.29977399806157 2.12522191802654E-05  C 7.151220766764 0.00130215395190966  7.00911739164789 0.0604269602252912  6.90407043139081 0.164661323709343  C 6.79902347113372 0.268895687193395  6.73943840387039 0.409899612464177  6.73814751640378 0.557303701739163  C 6.73685662893717 0.704707791014148  6.79396382824371 0.84671801857694  6.89716940406824 0.952748040594245  C 6.89716940406824 0.952748040594245  8.02691274791926 2.07375232418861  8.02691274791926 2.07375232418861  C 6.28511968446816 2.1698200096427  4.6153140834494 2.79542756326077  3.24420417510818 3.86563606150124  C 1.87309426676696 4.93584455974172  0.86710774101931 6.39880460853909  0.362826833682521 8.05589130431009  C -0.141454073654269 9.71297800008109  -0.119598040045181 11.4839078501535  0.425427775080745 13.1282439453655  C 0.970453590206672 14.7725800405775  2.01224341647702 16.2106576666132  3.40935442574575 17.2472283600897  C 3.52956571746287 17.3366893986937  3.68066897750571 17.3751017485742  3.82942285501098 17.3540155780251  C 3.97817673251625 17.3329294074759  4.11239643226607 17.2540715641696  4.20255489683262 17.1347901737794  C 4.29271336139918 17.0155087833892  4.33142516656979 16.8655749274072  4.31017461324351 16.7179717440348  C 4.28892405991723 16.5703685606623  4.20945144114853 16.4371871334587  4.08924015787398 16.3477260864774  C 2.74080362559158 15.3475302180262  1.77838297545508 13.9191425417583  1.36226087532223 12.3004510664537  C 0.946138775189382 10.6817595911491  1.1014326249083 8.97046702672463  1.80227917389563 7.4515743872603  C 2.50312572288296 5.93268174779596  3.70722220587122 4.69786842212627  5.21403682891431 3.95278321553632  C 6.72085145195741 3.20769800894637  8.4394333811722 2.99731340130444  10.0835669390179 3.35666717251523  Z M 6.77398185182758 17.8311910680897  C 6.80254436420042 17.7628905964375  6.84440658963779 17.7008540283737  6.89716940406824 17.64863154859  C 6.89716940406824 17.64863154859  6.91529945971978 17.6306406667316  6.91529945971978 17.6306406667316  C 7.37762182240594 17.7318346524075  7.8569412811169 17.7880530984189  8.34759222723184 17.799296873907  C 8.34759222723184 17.799296873907  8.34079278095662 17.8060437226764  8.34079278095662 17.8060437226764  C 8.36859379428378 17.8024966328608  8.39662141473293 17.8009936935322  8.42464577423797 17.8015465383568  C 9.97799329724007 17.8175491379751  11.496670344265 17.3458124923982  12.7635472915397 16.4537830749131  C 14.0304242388144 15.5617536574281  14.9806304096437 14.2951065879252  15.4783126688793 12.834939385488  C 15.9759949281149 11.3747721830507  15.9956703462356 9.79585207840952  15.53452373014 8.32392145240763  C 15.0733771140443 6.85199082640574  14.1550213631681 5.5624197378159  12.9107587614766 4.63958228891435  C 12.8512361724249 4.5952856784684  12.8010900028679 4.53978917055795  12.7631820320291 4.47626233299466  C 12.7252740611902 4.41273549543137  12.7003475943687 4.34242231029071  12.6898253867565 4.26933663135701  C 12.6793031791443 4.19625095242331  12.6833907905271 4.12182427429965  12.7018562569698 4.05030638389392  C 12.7203217234125 3.97878849348819  12.752803162434 3.91157981412485  12.7974451031674 3.85251766546737  C 12.8420870439008 3.7934555168099  12.8980156546354 3.74369671967241  12.962037738694 3.70608198811147  C 13.0260598227526 3.66846725655053  13.0969217001463 3.64373333967288  13.170577144989 3.6332925292942  C 13.2442325898317 3.62285171891552  13.3192384074603 3.62690851037538  13.3913138415111 3.64523113823993  C 13.4633892755619 3.66355376610449  13.5311224448779 3.69578340485614  13.5906450339295 3.74008001530209  C 14.9877560431983 4.77665070877859  16.0295451940627 6.21472726252427  16.5745710091886 7.85906335773627  C 17.1195968243146 9.50339945294827  17.1414539385731 11.2743298391657  16.6371730312363 12.9314165349367  C 16.1328921238995 14.5885032307077  15.1269051929083 16.0514632795051  13.7557952845671 17.1216717777455  C 12.3846853762259 18.191880275986  10.7148803155318 18.8174897061116  8.97308725208074 18.9135573915657  C 8.97308725208074 18.9135573915657  10.1016969946694 20.0334356366089  10.1016969946694 20.0334356366089  C 10.1558103549585 20.0852957745177  10.1989733720568 20.1473308179191  10.2286668199494 20.2159200958076  C 10.2583602678419 20.284509373696  10.2739904115149 20.358280962205  10.2746441310151 20.4329280043039  C 10.2752978505154 20.5075750464027  10.2609627460766 20.5816020032918  10.2324750285752 20.6506929495502  C 10.2039873110739 20.7197838958086  10.1619170669513 20.7825537217537  10.1087201353787 20.8353391454175  C 10.0555232038061 20.8881245690814  9.99226403292427 20.9298704487129  9.92263446314385 20.9581377978451  C 9.85300489336342 20.9864051469774  9.77839975184236 21.0006293613954  9.70317077166189 20.9999806987797  C 9.62794179148141 20.9993320361641  9.5535961704561 20.983822800362  9.48447217998331 20.9543590478351  C 9.41534818951052 20.9248952953081  9.35282952943605 20.8820661681988  9.30056509701912 20.8283714049052  C 9.30056509701912 20.8283714049052  6.89716940406824 18.4446900045312  6.89716940406824 18.4446900045312  C 6.84440658963779 18.3924675247475  6.80254436420042 18.3304309566837  6.77398185182758 18.2621304850315  C 6.74541933945474 18.1938300133793  6.73071697085571 18.120607512753  6.73071697085571 18.0466602404156  C 6.73071697085571 17.9727129680782  6.74541933945474 17.8994915397419  6.77398185182758 17.8311910680897  Z M 10.9828671930786 8.28626155481848  C 11.0517001258214 8.31460312024219  11.1142224837431 8.35614151803887  11.1668520828024 8.40849618269861  C 11.2196148972329 8.46071866248231  11.2614760420208 8.52275630283613  11.2900385543936 8.59105677448832  C 11.3186010667665 8.65935724614051  11.3333034353655 8.73257760218681  11.3333034353655 8.8065248745242  C 11.3333034353655 8.88047214686158  11.3186010667665 8.9536935751979  11.2900385543936 9.02199404685009  C 11.2614760420208 9.09029451850227  11.2196148972329 9.1523321588561  11.1668520828024 9.2045546386398  C 11.1668520828024 9.2045546386398  7.76742288183651 12.5776873604683  7.76742288183651 12.5776873604683  C 7.71479328277724 12.630042025128  7.65227092485547 12.6715804229247  7.58343799211266 12.6999219883484  C 7.51460505936985 12.7282635537721  7.44081388749031 12.7428521913574  7.36629013238019 12.7428521913574  C 7.29176637727007 12.7428521913574  7.21797520539054 12.7282635537721  7.14914227264773 12.6999219883484  C 7.08030933990492 12.6715804229247  7.01778698198314 12.630042025128  6.96515738292387 12.5776873604683  C 6.96515738292387 12.5776873604683  5.26544278244092 10.891120999554  5.26544278244092 10.891120999554  C 5.15905579155076 10.7855569713206  5.09928806814906 10.6423813153031  5.09928806814906 10.4930912354384  C 5.09928806814906 10.3438011555738  5.15905579155076 10.2006265718463  5.26544278244092 10.0950625436128  C 5.37182977333108 9.98949851537937  5.51612160708654 9.93019259247761  5.66657553189724 9.93019259247761  C 5.81702945670794 9.93019259247761  5.96132129046341 9.98949851537937  6.06770828135356 10.0950625436128  C 6.06770828135356 10.0950625436128  7.36629013238019 11.3847229003464  7.36629013238019 11.3847229003464  C 7.36629013238019 11.3847229003464  10.3645865838898 8.40849618269861  10.3645865838898 8.40849618269861  C 10.417216182949 8.35614151803887  10.4797385408708 8.31460312024219  10.5485714736136 8.28626155481848  C 10.6174044063564 8.25791998939477  10.691195578236 8.24333135180947  10.7657193333461 8.24333135180947  C 10.8402430884562 8.24333135180947  10.9140342603357 8.25791998939477  10.9828671930786 8.28626155481848  Z M 4.49316746678163 14.4694911023928  C 3.43063970759915 13.4151825875012  2.83371786442566 11.9852334559182  2.83371786442566 10.4942160676633  C 2.83371786442566 9.00319867940847  3.43063970759915 7.57324954782551  4.49316746678163 6.51894103293391  C 5.55569522596412 5.4646325180423  6.99679204446224 4.87232819794923  8.49943319936882 4.87232819794923  C 10.0020743542754 4.87232819794923  11.4431711727735 5.4646325180423  12.505698931956 6.51894103293391  C 13.5682266911385 7.57324954782551  14.165148534312 9.00319867940847  14.165148534312 10.4942160676633  C 14.165148534312 11.9852334559182  13.5682266911385 13.4151825875012  12.505698931956 14.4694911023928  C 11.4431711727735 15.5237996172844  10.0020743542754 16.1161039373774  8.49943319936882 16.1161039373774  C 6.99679204446224 16.1161039373774  5.55569522596412 15.5237996172844  4.49316746678163 14.4694911023928  Z M 11.7044460015685 7.31399582542179  C 10.8544238347468 6.47054905371938  9.70154615031032 5.99670577189205  8.49943319936882 5.99670577189205  C 7.29732024842732 5.99670577189205  6.14444256399081 6.47054905371938  5.29442039716918 7.31399582542179  C 4.44439823034755 8.1574425971242  3.9668609314143 9.30140213025219  3.96686093141429 10.4942160676633  C 3.9668609314143 11.6870300050745  4.44439823034755 12.8309895382025  5.29442039716918 13.6744363099049  C 6.14444256399081 14.5178830816073  7.29732024842732 14.9917263634346  8.49943319936882 14.9917263634346  C 9.70154615031032 14.9917263634346  10.8544238347468 14.5178830816073  11.7044460015685 13.6744363099049  C 12.5544681683901 12.8309895382025  13.0320054673233 11.6870300050745  13.0320054673234 10.4942160676633  C 13.0320054673233 9.30140213025219  12.5544681683901 8.1574425971242  11.7044460015685 7.31399582542179  Z " fill-rule="nonzero" fill="#ffffff" stroke="none" transform="matrix(1 0 0 1 3 1 )" />
  </g>
</svg>