<?xml version="1.0" encoding="utf-8"?>
<svg version="1.1" xmlns:xlink="http://www.w3.org/1999/xlink" width="11px" height="6px" xmlns="http://www.w3.org/2000/svg">
  <g transform="matrix(1 0 0 1 -9 -4 )">
    <path d="M 0 0  C 0 0  1.95246362039771 0  1.95246362039771 0  C 2.96299082621641 0  3.66680543722501 0.631082350728239  3.66680543722501 1.54984378606344  C 3.66680543722501 2.471875733265  2.9485508756846 3.10622883578271  1.92719360765605 3.10622883578271  C 1.92719360765605 3.10622883578271  0.808366044568173 3.10622883578271  0.808366044568173 3.10622883578271  L 0.808366044568173 4.71833842690095  L 0 4.71833842690095  L 0 0  Z M 0.808366044568173 0.618000183301256  L 0.808366044568173 2.49149880446315  C 0.808366044568173 2.49149880446315  1.73586290585934 2.49149880446315  1.73586290585934 2.49149880446315  C 2.43981635363361 2.49149880446315  2.84024985634214 2.14822125805122  2.84024985634214 1.55311441789135  C 2.84024985634214 0.958133357421614  2.4396776492826 0.618000183301256  1.73947305901062 0.618000183301256  C 1.73947305901062 0.618000183301256  0.808366044568173 0.618000183301256  0.808366044568173 0.618000183301256  Z M 3.86730029245823 3.7405816983773  C 3.86730029245823 3.13566332261837  4.3761734526529 2.7891152193545  5.31450030994659 2.73678707447837  C 5.31450030994659 2.73678707447837  6.32141842193126 2.68118825278875  6.32141842193126 2.68118825278875  C 6.32141842193126 2.68118825278875  6.32141842193126 2.4195477833264  6.32141842193126 2.4195477833264  C 6.32141842193126 2.03714981422754  6.04358536404448 1.82783693481913  5.54915179024132 1.82783693481913  C 5.14121981114396 1.82783693481913  4.84519806936183 2.01740063344499  4.78410546485392 2.30835013994715  C 4.78410546485392 2.30835013994715  4.05488207054533 2.30835013994715  4.05488207054533 2.30835013994715  C 4.07668102345478 1.69701652014562  4.71176634577058 1.25235352574207  5.57081164983171 1.25235352574207  C 6.49469842417894 1.25235352574207  7.09743291801356 1.69047585629757  7.09743291801356 2.37061594500195  C 7.09743291801356 2.37061594500195  7.09743291801356 4.7182127071916  7.09743291801356 4.7182127071916  L 6.35043735838253 4.7182127071916  L 6.35043735838253 4.15254023390584  C 6.35043735838253 4.15254023390584  6.33238659262617 4.15254023390584  6.33238659262617 4.15254023390584  C 6.11939555123595 4.52198196521979  5.65009399755221 4.75406201820441  5.14122037390624 4.75406201820441  C 4.39061439629462 4.75406201820441  3.86730029245823 4.3487705860026  3.86730029245823 3.7405816983773  Z M 6.32141842193126 3.43655017440011  L 6.32141842193126 3.17163907310985  C 6.32141842193126 3.17163907310985  5.42280172653302 3.22396726297156  5.42280172653302 3.22396726297156  C 4.91739925375434 3.25340184352719  4.65414524799435 3.42334213731183  4.65414524799435 3.7208326675467  C 4.65414524799435 4.00863747186302  4.92836785479688 4.19505652828382  5.35782108844461 4.19505652828382  C 5.90626607032403 4.19505652828382  6.32141842193126 3.87781729711262  6.32141842193126 3.43655017440011  Z M 7.78430798704975 5.98025144901562  C 7.78430798704975 5.98025144901562  7.78430798704975 5.41470469543921  7.78430798704975 5.41470469543921  C 7.83484823184484 5.4211199244866  7.95745053460972 5.42766150304151  8.02243084993741 5.42766150304151  C 8.37968373506014 5.42766150304151  8.58184394458033 5.2905514440732  8.70458454203838 4.9372106827204  C 8.70458454203838 4.9372106827204  8.77678548642933 4.7280236429829  8.77678548642933 4.7280236429829  L 7.40886688975888 1.29486982012005  L 8.25333234720529 1.29486982012005  L 9.20623905111369 4.08058921276909  L 9.22428769823557 4.08058921276909  L 10.1770545722684 1.29486982012005  L 11 1.29486982012005  C 11 1.29486982012005  9.58154243716347 4.90123469230581  9.58154243716347 4.90123469230581  C 9.25664086880096 5.7285476950347  8.88494700693285 6  8.09824088816239 6  C 8.03687058943336 6  7.83831940340192 5.99345927335957  7.78430798704975 5.98025144901562  Z " fill-rule="nonzero" fill="#000000" stroke="none" transform="matrix(1 0 0 1 9 4 )" />
  </g>
</svg>