<?xml version="1.0" encoding="utf-8"?>
<svg version="1.1" xmlns:xlink="http://www.w3.org/1999/xlink" width="4px" height="2px" xmlns="http://www.w3.org/2000/svg">
  <g transform="matrix(1 0 0 1 -4 -3 )">
    <path d="M 2.28539189905252 0.978656091216955  C 2.65031414978053 0.972218538891278  3.0030764134286 1.10536237988917  3.2667798516251 1.34906360698454  C 3.2667798516251 1.34906360698454  4 0.64474500686496  4 0.64474500686496  C 3.53248571018048 0.220962037264551  2.91237968719292 -0.0101911938098505  2.27129171846354 0.000344995071745472  C 1.7994177503249 0.00263069534766855  1.33741697455678 0.131079048079655  0.936510392220104 0.371449467608454  C 0.535603809883426 0.611819887137252  0.211454584720326 0.954721231453829  0 1.36213690127704  C 0 1.36213690127704  0.847151694536967 2  0.847151694536967 2  C 0.9462053841723 1.7058979240444  1.13823415664398 1.44918700678392  1.39622528096381 1.26597862953268  C 1.65421640528364 1.08277025228144  1.96518701908243 0.982283936947676  2.28539189905252 0.978656091216955  Z " fill-rule="nonzero" fill="#ea4335" stroke="none" transform="matrix(1 0 0 1 4 3 )" />
  </g>
</svg>