<?xml version="1.0" encoding="utf-8"?>
<svg version="1.1" xmlns:xlink="http://www.w3.org/1999/xlink" width="18px" height="6px" xmlns="http://www.w3.org/2000/svg">
  <g transform="matrix(1 0 0 1 -3 -4 )">
    <path d="M 15.1183196754071 1.31250023841858  C 15.1183196754071 1.31250023841858  14.9236636875629 1.31250023841858  14.9236636875629 1.31250023841858  C 14.6641217065204 1.93750023841858  14.4694652352416 2.25000023841858  14.2748087446254 3.18750023841858  C 14.2748087446254 3.18750023841858  15.5076328886882 3.18750023841858  15.5076328886882 3.18750023841858  C 15.3129763980719 2.25000023841858  15.3129761660233 1.81250024586916  15.1183196754071 1.31250023841858  Z M 17 5  C 17 5  15.8969461019692 5  15.8969461019692 5  C 15.8320606067086 5  15.8320601136053 4.99999976251274  15.7671746183446 4.93749976158142  C 15.7671746183446 4.93749976158142  15.6374043723127 4.375  15.6374043723127 4.375  L 15.5725186305004 4.25000011920929  C 15.5725186305004 4.25000011920929  14.0152670149689 4.25000011920929  14.0152670149689 4.25000011920929  C 13.9503815197083 4.25000011920929  13.8854955313444 4.24999999813735  13.8854955313444 4.375  C 13.8854955313444 4.375  13.6908395435001 4.93749976158142  13.6908395435001 4.93749976158142  C 13.6908395435001 4.99999976251274  13.6259538016879 5  13.6259538016879 5  C 13.6259538016879 5  12.2633581740006 5  12.2633581740006 5  L 12.3931296576251 4.6875  C 12.3931296576251 4.6875  14.2748087446254 0.43749988079071  14.2748087446254 0.43749988079071  C 14.2748087446254 0.12499988079071  14.4694647324696 0  14.7938922039384 0  C 14.7938922039384 0  15.7671746183446 0  15.7671746183446 0  C 15.8320601136053 0  15.8969461019692 0  15.8969461019692 0.12499988079071  C 15.8969461019692 0.12499988079071  16.8053427745632 4.18749988079071  16.8053427745632 4.18749988079071  C 16.8702282698238 4.437499884516  16.9351142581877 4.625000115484  16.9351142581877 4.87500011920929  C 16.9999997534484 4.93750012014061  17 4.93749999906868  17 5  Z M 8.30534277456319 4.81249988079071  C 8.30534277456319 4.81249988079071  8.56488574181227 3.68749976158142  8.56488574181227 3.68749976158142  C 8.62977123707289 3.68749976158142  8.69465598784422 3.75  8.69465598784422 3.75  C 9.14885444016553 3.93750000745058  9.60305316321022 4.06249976251274  10.0572516155315 3.99999976158142  C 10.1870226060528 3.99999976158142  10.3816795801036 3.93749988172203  10.5114505706248 3.87499988079071  C 10.8358780420936 3.74999987892807  10.835877055887 3.43750024214387  10.5763350748445 3.18750023841858  C 10.4465640843233 3.06250023655593  10.2519081061477 3.00000024028122  10.0572516155315 2.87500023841858  C 9.79770963448904 2.75000023655593  9.53816742139795 2.624999769032  9.34351093078174 2.43749976158142  C 8.5648849683169 1.81249976158142  8.82442673664816 0.937500111758709  9.27862518896947 0.50000011920929  C 9.66793817020189 0.250000115483999  9.86259512491532 0  10.3816790870003 0  C 11.1603050494651 0  12.0038166763927 0  12.3931296576251 0.12499988079071  C 12.3931296576251 0.12499988079071  12.4580153994374 0.12499988079071  12.4580153994374 0.12499988079071  C 12.3931299041768 0.499999895691872  12.3282434227095 0.81249974668026  12.1984724321883 1.18749976158142  C 11.8740449607195 1.06249975971878  11.5496174892508 0.9375  11.225190017782 0.9375  C 11.0305335271658 0.9375  10.835877307273 0.937500237487257  10.6412208166568 1.00000023841858  C 10.5114498261355 1.00000023841858  10.4465645822609 1.06250011827797  10.3816790870003 1.12500011920929  C 10.251908096479 1.25000012107193  10.251908096479 1.43749999813735  10.3816790870003 1.5625  C 10.3816790870003 1.5625  10.706106558469 1.81249976158142  10.706106558469 1.81249976158142  C 10.9656485395115 1.93749976344407  11.2251907526026 2.06249999813735  11.4198472432188 2.1875  C 11.7442747146876 2.37500000745058  12.068702432708 2.68749974668026  12.1335879279686 3.06249976158142  C 12.2633589184899 3.62499974668026  12.0687014513358 4.12499986588955  11.5496174892508 4.49999988079071  C 11.225190017782 4.749999884516  11.0954192689781 4.87500011920929  10.6412208166568 4.87500011920929  C 9.73282391201416 4.87500011920929  9.01908369136159 4.93750024586916  8.43511425818773 4.75000023841858  C 8.37022876292711 4.87500024028122  8.37022826982381 4.87499988172203  8.30534277456319 4.81249988079071  Z M 7.1374043723127 4.93749976158142  L 6.03435109307817 5  C 6.09923658833879 4.56250000745058  6.0992364626458 4.56250000745058  6.16412195790642 4.375  C 6.48854942937518 2.99999997019768  6.81297664945794 1.56250014901161  7.07251863050043 0.18750011920929  C 7.13740412576105 0.0625001173466444  7.13740486541599 0  7.26717585593723 0  C 7.26717585593723 0  8.43511425818773 0  8.43511425818773 0  C 8.30534326766649 0.750000029802322  8.17557179371064 1.31249986588955  7.98091530309443 1.99999988079071  C 7.78625881247822 2.93749988079071  7.5916023411994 3.87499988079071  7.33206036015692 4.81249988079071  C 7.33206036015692 4.93749988265336  7.26717536283394 4.93749976158142  7.1374043723127 4.93749976158142  Z M 0.0648854324141224 0.249999761581421  C 0.0648854324141224 0.249999761581421  0 0.12499988079071  0 0.12499988079071  C 0 0.0624998798593879  0.129771111379893 0  0.194656606640514 0  C 0.194656606640514 0  2.40076316510956 0  2.40076316510956 0  C 2.72519063657832 0  2.98473261278645 0.18750011920929  3.04961810804707 0.50000011920929  C 3.04961810804707 0.50000011920929  3.63358792796862 3.24999988079071  3.63358792796862 3.24999988079071  C 3.63358792796862 3.31249988172203  3.63358755572397 3.3124997606501  3.69847305098459 3.37499976158142  C 3.69847305098459 3.3124997606501  3.76335879279686 3.31250011920929  3.76335879279686 3.31250011920929  C 3.76335879279686 3.31250011920929  5.12595380168787 0.12499988079071  5.12595380168787 0.12499988079071  C 5.06106830642725 0.0624998798593879  5.12595404823952 0  5.19083954350014 0  C 5.19083954350014 0  6.55343517118745 0  6.55343517118745 0  C 6.55343517118745 0.0625000009313226  6.5534349246358 0.0624998798593879  6.48854942937518 0.12499988079071  C 6.48854942937518 0.12499988079071  4.47709885875036 4.6875  4.47709885875036 4.6875  C 4.41221336348973 4.81250000186265  4.41221348918273 4.8749997606501  4.34732799392211 4.93749976158142  C 4.28244249866149 4.99999976251274  4.15267151297459 4.93749976158142  4.02290052245335 4.93749976158142  C 4.02290052245335 4.93749976158142  3.04961810804707 4.93749976158142  3.04961810804707 4.93749976158142  C 2.98473261278645 4.93749976158142  2.91984724321883 4.93749988265336  2.91984724321883 4.81249988079071  C 2.91984724321883 4.81249988079071  1.88167939639843 0.9375  1.88167939639843 0.9375  C 1.75190840587719 0.812499998137355  1.55725186691752 0.624999762512743  1.29770988587504 0.562499761581421  C 0.908396904642617 0.37499975413084  0.194656422935364 0.249999761581421  0.0648854324141224 0.249999761581421  Z " fill-rule="nonzero" fill="#142688" stroke="none" transform="matrix(1 0 0 1 3 4 )" />
  </g>
</svg>