<?xml version="1.0" encoding="utf-8"?>
<svg version="1.1" xmlns:xlink="http://www.w3.org/1999/xlink" width="5px" height="6px" xmlns="http://www.w3.org/2000/svg">
  <g transform="matrix(1 0 0 1 -10 -4 )">
    <path d="M 4.3994060408378 0  C 4.3994060408378 0  4.27887504557687 0.122448860432199  4.27887504557687 0.122448860432199  C 3.97754583320498 1.8367345121591  2.95302633871857 2.44897954417288  1.50664606185948 2.44897954417288  C 1.50664606185948 2.44897954417288  0.843721564745365 2.44897954417288  0.843721564745365 2.44897954417288  C 0.662924030137979 2.44897954417288  0.542392123375555 2.571428514083  0.482126280003145 2.75510198719449  C 0.482126280003145 2.75510198719449  0.120530995260925 5.14285739309238  0.120530995260925 5.14285739309238  C 0.120530995260925 5.14285739309238  0 5.7551022791356  0 5.7551022791356  C 0 5.87755125816888  0.0602653808864282 6  0.180797067631249 6  C 0.180797067631249 6  1.44637998948916 6  1.44637998948916 6  C 1.62717752409654 6  1.74770920186105 5.87755125816888  1.74770920186105 5.7551022791356  C 1.74770920186105 5.7551022791356  1.74770920186105 5.69387755697839  1.74770920186105 5.69387755697839  L 1.98877234186263 4.22448948014533  C 1.98877234186263 4.22448948014533  1.98877234186263 4.16326534187034  1.98877234186263 4.16326534187034  C 1.98877234186263 4.04081636283706  2.1695698674897 3.91836703712372  2.29010155423452 3.91836703712372  C 2.29010155423452 3.91836703712372  2.47089977134549 3.91836703712372  2.47089977134549 3.91836703712372  C 3.73648240583347 3.91836703712372  4.70073501972162 3.42857130345381  4.94179839321126 1.95918351856186  C 5.06233007995609 1.34693863251864  5.00206446558159 0.857142971834008  4.70073525320969 0.489796025611021  C 4.64046940983728 0.183673582589411  4.51993772758262 0.061224489516638  4.3994060408378 0  Z " fill-rule="nonzero" fill="#3086c8" stroke="none" transform="matrix(1 0 0 1 10 4 )" />
  </g>
</svg>