<?xml version="1.0" encoding="utf-8"?>
<svg version="1.1" xmlns:xlink="http://www.w3.org/1999/xlink" width="18px" height="17px" xmlns="http://www.w3.org/2000/svg">
  <defs>
    <mask fill="white" id="clip1396">
      <path d="M 16.2 5.09536774148618  C 16.2 7.77275197919899  13.3740005493164 10.4130781488013  9.09000034332276 14.4059935441187  C 9.09000034332276 14.4059935441187  9 14.4986369473691  9 14.4986369473691  C 9 14.4986369473691  8.90100030899048 14.4059935441187  8.90100030899048 14.4059935441187  C 4.62600030899048 10.4130781488013  1.8 7.77275197919899  1.8 5.09536774148618  C 1.8 3.24250674458212  3.15 1.85286099690407  4.95 1.85286099690407  C 6.33599996566772 1.85286099690407  7.685999751091 2.77929160579522  8.1629997253418 4.03923709694268  C 8.1629997253418 4.03923709694268  9.8370002746582 4.03923709694268  9.8370002746582 4.03923709694268  C 10.314000248909 2.77929160579522  11.6640000343323 1.85286099690407  13.05 1.85286099690407  C 14.85 1.85286099690407  16.2 3.24250674458212  16.2 5.09536774148618  Z M 18 5.09536774148618  C 18 2.23269758078557  15.8219999313354 0  13.05 0  C 11.4839999914169 0  9.98100003004074 0.750408650735369  9 1.92697536609919  C 8.01899996995926 0.750408650735369  6.51600000858307 0  4.95 0  C 2.17800006866455 0  0 2.23269758078557  0 5.09536774148618  C 0 8.58801070298009  3.06000008583069 11.4506815263154  7.69500017166138 15.7771120247675  C 7.69500017166138 15.7771120247675  9 17  9 17  C 9 17  10.3049998283386 15.7771120247675  10.3049998283386 15.7771120247675  C 14.9399999141693 11.4506815263154  18 8.58801070298009  18 5.09536774148618  Z " fill-rule="evenodd" />
    </mask>
  </defs>
  <g transform="matrix(1 0 0 1 -2 -3 )">
    <path d="M 16.2 5.09536774148618  C 16.2 7.77275197919899  13.3740005493164 10.4130781488013  9.09000034332276 14.4059935441187  C 9.09000034332276 14.4059935441187  9 14.4986369473691  9 14.4986369473691  C 9 14.4986369473691  8.90100030899048 14.4059935441187  8.90100030899048 14.4059935441187  C 4.62600030899048 10.4130781488013  1.8 7.77275197919899  1.8 5.09536774148618  C 1.8 3.24250674458212  3.15 1.85286099690407  4.95 1.85286099690407  C 6.33599996566772 1.85286099690407  7.685999751091 2.77929160579522  8.1629997253418 4.03923709694268  C 8.1629997253418 4.03923709694268  9.8370002746582 4.03923709694268  9.8370002746582 4.03923709694268  C 10.314000248909 2.77929160579522  11.6640000343323 1.85286099690407  13.05 1.85286099690407  C 14.85 1.85286099690407  16.2 3.24250674458212  16.2 5.09536774148618  Z M 18 5.09536774148618  C 18 2.23269758078557  15.8219999313354 0  13.05 0  C 11.4839999914169 0  9.98100003004074 0.750408650735369  9 1.92697536609919  C 8.01899996995926 0.750408650735369  6.51600000858307 0  4.95 0  C 2.17800006866455 0  0 2.23269758078557  0 5.09536774148618  C 0 8.58801070298009  3.06000008583069 11.4506815263154  7.69500017166138 15.7771120247675  C 7.69500017166138 15.7771120247675  9 17  9 17  C 9 17  10.3049998283386 15.7771120247675  10.3049998283386 15.7771120247675  C 14.9399999141693 11.4506815263154  18 8.58801070298009  18 5.09536774148618  Z " fill-rule="nonzero" fill="#ffffff" stroke="none" transform="matrix(1 0 0 1 2 3 )" />
    <path d="M 16.2 5.09536774148618  C 16.2 7.77275197919899  13.3740005493164 10.4130781488013  9.09000034332276 14.4059935441187  C 9.09000034332276 14.4059935441187  9 14.4986369473691  9 14.4986369473691  C 9 14.4986369473691  8.90100030899048 14.4059935441187  8.90100030899048 14.4059935441187  C 4.62600030899048 10.4130781488013  1.8 7.77275197919899  1.8 5.09536774148618  C 1.8 3.24250674458212  3.15 1.85286099690407  4.95 1.85286099690407  C 6.33599996566772 1.85286099690407  7.685999751091 2.77929160579522  8.1629997253418 4.03923709694268  C 8.1629997253418 4.03923709694268  9.8370002746582 4.03923709694268  9.8370002746582 4.03923709694268  C 10.314000248909 2.77929160579522  11.6640000343323 1.85286099690407  13.05 1.85286099690407  C 14.85 1.85286099690407  16.2 3.24250674458212  16.2 5.09536774148618  Z " stroke-width="0.400000005960464" stroke="#ffffff" fill="none" transform="matrix(1 0 0 1 2 3 )" mask="url(#clip1396)" />
    <path d="M 18 5.09536774148618  C 18 2.23269758078557  15.8219999313354 0  13.05 0  C 11.4839999914169 0  9.98100003004074 0.750408650735369  9 1.92697536609919  C 8.01899996995926 0.750408650735369  6.51600000858307 0  4.95 0  C 2.17800006866455 0  0 2.23269758078557  0 5.09536774148618  C 0 8.58801070298009  3.06000008583069 11.4506815263154  7.69500017166138 15.7771120247675  C 7.69500017166138 15.7771120247675  9 17  9 17  C 9 17  10.3049998283386 15.7771120247675  10.3049998283386 15.7771120247675  C 14.9399999141693 11.4506815263154  18 8.58801070298009  18 5.09536774148618  Z " stroke-width="0.400000005960464" stroke="#ffffff" fill="none" transform="matrix(1 0 0 1 2 3 )" mask="url(#clip1396)" />
  </g>
</svg>