<?xml version="1.0" encoding="utf-8"?>
<svg version="1.1" xmlns:xlink="http://www.w3.org/1999/xlink" width="20px" height="14px" xmlns="http://www.w3.org/2000/svg">
  <g transform="matrix(1 0 0 1 -1 -5 )">
    <path d="M 20 5.29171250828498  C 19.9998870297627 5.22679811829207  19.9875211791467 5.16249714095513  19.9635599427304 5.10223495622042  C 19.9635599427304 5.10223495622042  18.7771192647643 2.1149778950918  18.7771192647643 2.1149778950918  C 18.6897231360613 1.89276328213119  18.5378546836013 1.70223673531088  18.3413282491393 1.56825460761172  C 18.1448018146774 1.43427247991256  17.9127422833847 1.36305608413688  17.6754243495101 1.36389651042454  C 17.6754243495101 1.36389651042454  14.5762711864407 1.36389651042454  14.5762711864407 1.36389651042454  C 14.5762711864407 1.36389651042454  14.5762711864407 0.512101210479192  14.5762711864407 0.512101210479192  C 14.5762711864407 0.376283525099129  14.5227002996509 0.246028513412947  14.4273428189552 0.14999090687101  C 14.3319853382596 0.0539533003290736  14.2026524523557 0  14.0677966101695 0  C 14.0677966101695 0  1.1864406779661 0  1.1864406779661 0  C 0.871777049565719 0  0.570001198073565 0.125891254549472  0.347500413151111 0.349978999755811  C 0.124999628228656 0.574066744962151  0 0.87799489528948  0 1.19490282445145  C 0 1.19490282445145  0 10.754125420063  0 10.754125420063  C 0 11.071033349225  0.124999628228656 11.3749611739671  0.347500413151111 11.5990489191735  C 0.570001198073565 11.8231366643798  0.871777049565719 11.9490282445145  1.1864406779661 11.9490282445145  C 1.1864406779661 11.9490282445145  2.76271173509501 11.9490282445145  2.76271173509501 11.9490282445145  C 2.87941421492625 12.5278503645391  3.1912184165696 13.0482408516378  3.64529237908832 13.422025093315  C 4.09936634160705 13.7958093349923  4.66778528892388 14  5.25423728813559 14  C 5.84068928734731 14  6.40910823466414 13.7958093349923  6.86318219718287 13.422025093315  C 7.31725615970159 13.0482408516378  7.62906036134494 12.5278503645391  7.74576284117618 11.9490282445145  C 7.74576284117618 11.9490282445145  12.2542378053827 11.9490282445145  12.2542378053827 11.9490282445145  C 12.3709402852139 12.5278503645391  12.6827438402984 13.0482408516378  13.1368178028171 13.422025093315  C 13.5908917653359 13.7958093349923  14.1593107126527 14  14.7457627118644 14  C 15.3322147110761 14  15.900633658393 13.7958093349923  16.3547076209117 13.422025093315  C 16.8087815834304 13.0482408516378  17.1205851385149 12.5278503645391  17.2372876183461 11.9490282445145  C 17.2372876183461 11.9490282445145  18.8135593220339 11.9490282445145  18.8135593220339 11.9490282445145  C 19.1282229504343 11.9490282445145  19.4299983978271 11.8231366643798  19.6524991827496 11.5990489191735  C 19.8749999676721 11.3749611739671  20 11.071033349225  20 10.754125420063  C 20 10.754125420063  20 5.29171250828498  20 5.29171250828498  Z M 14.5762711864407 4.77961129780579  L 14.5762711864407 2.38980564890289  C 14.5762711864407 2.38980564890289  17.6762713416148 2.38980564890289  17.6762713416148 2.38980564890289  C 17.7102168939881 2.38977255319853  17.7433897731668 2.40000584599821  17.7714939440711 2.41917994395284  C 17.7995981149754 2.43835404190746  17.8213386666977 2.46558563798707  17.8338985119836 2.49734708543123  C 17.8338985119836 2.49734708543123  18.740677914377 4.77961129780579  18.740677914377 4.77961129780579  L 14.5762711864407 4.77961129780579  Z M 1.01694915254237 7  C 1.01694915254237 7  1.01694915254237 1.19490282445145  1.01694915254237 1.19490282445145  C 1.01694915254237 1.14963026096234  1.03480627728721 1.10621181605309  1.0665921033439 1.07419928138699  C 1.09837792940059 1.04218674672089  1.14148872888694 1.02420242095838  1.1864406779661 1.02420242095838  C 1.1864406779661 1.02420242095838  13.5593220338983 1.02420242095838  13.5593220338983 1.02420242095838  L 13.5593220338983 7  L 1.01694915254237 7  Z M 6.33287462137513 12.5232576192746  C 6.04680218939054 12.8113704287259  5.65880480459181 12.9732306654729  5.25423728813559 12.9732306654729  C 4.95253698300507 12.9732306654729  4.65761198835858 12.8831274288073  4.40675735473633 12.7143162129792  C 4.15590272111408 12.5455049971511  3.96038510031619 12.305568090908  3.84492938801394 12.0248453121548  C 3.72947367571168 11.7441225334016  3.69926520323349 11.4352226566588  3.75812401205806 11.1372089442901  C 3.81698282088264 10.8391952319213  3.96226561675637 10.5654523686322  4.17559995489605 10.3505964487959  C 4.38893429303573 10.1357405289596  4.66073854494903 9.98942217206014  4.95664176294359 9.93014355980884  C 5.25254498093815 9.87086494755753  5.55925662234678 9.90128790160351  5.83799135887017 10.0175670879894  C 6.11672609539355 10.1338462743753  6.35496509277214 10.3307590524308  6.52258080951238 10.5834028767776  C 6.69019652625262 10.8360467011244  6.77966101694915 11.1330748874987  6.77966101694915 11.4369270340353  C 6.77966101694915 11.8443800800009  6.61894705335973 12.2351448098234  6.33287462137513 12.5232576192746  Z M 12.712223893505 9.90207941952814  C 12.4866088164055 10.2048483645159  12.3302178362669 10.5540910533843  12.2542378053827 10.9248258235561  C 12.2542378053827 10.9248258235561  7.74576284117618 10.9248258235561  7.74576284117618 10.9248258235561  C 7.62906036134494 10.3460037035314  7.31725615970159 9.82561321643275  6.86318219718287 9.45182897475552  C 6.40910823466414 9.07804473307829  5.84068928734731 8.87385406807056  5.25423728813559 8.87385406807056  C 4.66778528892388 8.87385406807056  4.09936634160705 9.07804473307829  3.64529237908832 9.45182897475552  C 3.1912184165696 9.82561321643275  2.87941421492625 10.3460037035314  2.76271173509501 10.9248258235561  C 2.76271173509501 10.9248258235561  1.1864406779661 10.9248258235561  1.1864406779661 10.9248258235561  C 1.14148872888694 10.9248258235561  1.09837792940059 10.9068414977936  1.0665921033439 10.8748289631275  C 1.03480627728721 10.8428164284614  1.01694915254237 10.7993979835521  1.01694915254237 10.754125420063  C 1.01694915254237 10.754125420063  1.01694915254237 7.85221856068094  1.01694915254237 7.85221856068094  L 13.5593220338983 7.85221856068094  C 13.5593220338983 7.85221856068094  13.5593220338983 9.17343931906185  13.5593220338983 9.17343931906185  C 13.2271018270719 9.35049750578495  12.9378389706046 9.5993104745404  12.712223893505 9.90207941952814  Z M 15.8244000451039 12.5232576192746  C 15.5383276131194 12.8113704287259  15.1503302283206 12.9732306654729  14.7457627118644 12.9732306654729  C 14.4440624067339 12.9732306654729  14.1491377353668 12.8831274288073  13.8982831017446 12.7143162129792  C 13.6474284681223 12.5455049971511  13.4519102007656 12.305568090908  13.3364544884633 12.0248453121548  C 13.2209987761611 11.7441225334016  13.1907912735212 11.4352226566588  13.2496500823457 11.1372089442901  C 13.3085088911703 10.8391952319213  13.4537910404852 10.5654523686322  13.6671253786249 10.3505964487959  C 13.8804597167645 10.1357405289596  14.1522639686778 9.98942217206014  14.4481671866724 9.93014355980884  C 14.744070404667 9.87086494755753  15.0507826926345 9.90128790160351  15.3295174291578 10.0175670879894  C 15.6082521656812 10.1338462743753  15.8464898699421 10.3307590524308  16.0141055866823 10.5834028767776  C 16.1817213034226 10.8360467011244  16.271186440678 11.1330748874987  16.271186440678 11.4369270340353  C 16.271186440678 11.8443800800009  16.1104724770885 12.2351448098234  15.8244000451039 12.5232576192746  Z M 18.9830508474576 5.80381371876417  C 18.9830508474576 5.80381371876417  18.9830508474576 10.754125420063  18.9830508474576 10.754125420063  C 18.9830508474576 10.7993979835521  18.9651938843525 10.8428164284614  18.9334080582958 10.8748289631275  C 18.9016222322391 10.9068414977936  18.8585112711131 10.9248258235561  18.8135593220339 10.9248258235561  C 18.8135593220339 10.9248258235561  17.2372876183461 10.9248258235561  17.2372876183461 10.9248258235561  C 17.1193312891459 10.346845381923  16.807101702286 9.82750397097641  16.3532399323027 9.45436202746544  C 15.8993781623194 9.08122008395446  15.3316465070692 8.87710191125042  14.7457627118644 8.87642098163932  C 14.6889830494331 8.87642098163932  14.6322033920531 8.87642160673743  14.5762711864407 8.88239612088513  C 14.5762711864407 8.88239612088513  14.5762711864407 5.80381371876417  14.5762711864407 5.80381371876417  L 18.9830508474576 5.80381371876417  Z " fill-rule="nonzero" fill="#ffffff" stroke="none" transform="matrix(1 0 0 1 1 5 )" />
  </g>
</svg>