<?xml version="1.0" encoding="utf-8"?>
<svg version="1.1" xmlns:xlink="http://www.w3.org/1999/xlink" width="16px" height="16px" xmlns="http://www.w3.org/2000/svg">
  <g>
    <path d="M 15.6529722294732 9.00774828832019  C 16.1170010249774 8.45588623258442  16.1170008342307 7.54411376741558  15.644971549652 6.99225171167981  C 15.644971549652 6.99225171167981  14.5569050355127 5.72856802208081  14.5569050355127 5.72856802208081  C 14.3488921288277 5.48862798748444  14.1808807137818 5.04074015331823  14.1808807137818 4.72082011513502  C 14.1808807137818 4.72082011513502  14.1808807137818 3.36115974429228  14.1808807137818 3.36115974429228  C 14.1808807137818 2.51337170150474  13.4848364475753 1.81754552966754  12.6367838426858 1.81754552966754  C 12.6367838426858 1.81754552966754  11.2767003185184 1.81754552966754  11.2767003185184 1.81754552966754  C 10.9646809584908 1.81754552966754  10.5086524613144 1.64958757695778  10.2686375506444 1.44163956286485  C 10.2686375506444 1.44163956286485  9.0045591323848 0.353911533152733  9.0045591323848 0.353911533152733  C 8.45252486168718 -0.117970495160311  7.54846835640907 -0.117970495160311  6.98843359663691 0.353911533152733  C 6.98843359663691 0.353911533152733  5.73235585819852 1.44963755607276  5.73235585819852 1.44963755607276  C 5.49234094752854 1.64958757695778  5.03631245035221 1.81754552966754  4.72429309032457 1.81754552966754  C 4.72429309032457 1.81754552966754  3.34020714519992 1.81754552966754  3.34020714519992 1.81754552966754  C 2.49215454031045 1.81754552966754  1.7961114185842 2.51337170150474  1.7961114185842 3.36115974429228  C 1.7961114185842 3.36115974429228  1.7961114185842 4.72881791765574  1.7961114185842 4.72881791765574  C 1.7961114185842 5.04073993879513  1.62810095727188 5.48862798748444  1.42808853966134 5.72856802208081  C 1.42808853966134 5.72856802208081  0.348021608549801 7.00024989557492  0.348021608549801 7.00024989557492  C -0.116007186954375 7.55211195131069  -0.116007186954375 8.44788804868931  0.348021608549801 8.99975010442508  C 0.348021608549801 8.99975010442508  1.42808853966134 10.2714323592936  1.42808853966134 10.2714323592936  C 1.62810095727188 10.51137239389  1.7961114185842 10.9592604425793  1.7961114185842 11.2711824637187  C 1.7961114185842 11.2711824637187  1.7961114185842 12.6388398743333  1.7961114185842 12.6388398743333  C 1.7961114185842 13.4866279171209  2.49215454031045 14.1824550423941  3.34020714519992 14.1824550423941  C 3.34020714519992 14.1824550423941  4.72429309032457 14.1824550423941  4.72429309032457 14.1824550423941  C 5.03631245035221 14.1824550423941  5.49234094752854 14.3504140438834  5.73235585819852 14.5583620579763  C 5.73235585819852 14.5583620579763  6.99643427645816 15.6460891342525  6.99643427645816 15.6460891342525  C 7.54846854715578 16.1179711625655  8.45252505243388 16.1179711625655  9.01255981220605 15.6460891342525  C 9.01255981220605 15.6460891342525  10.2766382304657 14.5583620579763  10.2766382304657 14.5583620579763  C 10.5166531411357 14.3504140438834  10.9646811253941 14.1824550423941  11.2847009983396 14.1824550423941  C 11.2847009983396 14.1824550423941  12.6447845225071 14.1824550423941  12.6447845225071 14.1824550423941  C 13.4928371273966 14.1824550423941  14.1888813936031 13.4866279171209  14.1888813936031 12.6388398743333  C 14.1888813936031 12.6388398743333  14.1888813936031 11.2791806476138  14.1888813936031 11.2791806476138  C 14.1888813936031 10.9672586264744  14.3568912826753 10.51137239389  14.5649041893604 10.2714323592936  C 14.5649041893604 10.2714323592936  15.6529722294732 9.00774828832019  15.6529722294732 9.00774828832019  Z M 11.3247028714723 5.64059028748098  C 11.5567172692244 5.87253230503354  11.5567172692244 6.25643554996715  11.3247028714723 6.48837756751971  C 11.3247028714723 6.48837756751971  7.46046302427566 10.3514119099983  7.46046302427566 10.3514119099983  C 7.3484560699369 10.4633839221706  7.1964468490504 10.5273681419468  7.03643691257764 10.5273681419468  C 6.87642697610487 10.5273681419468  6.72441775521838 10.4633839221706  6.61241080087961 10.3514119099983  C 6.61241080087961 10.3514119099983  4.67629015587725 8.41589640956025  4.67629015587725 8.41589640956025  C 4.44427575812517 8.18395439200769  4.44427575812517 7.80005000295088  4.67629015587725 7.56810798539832  C 4.90830455362934 7.33616596784575  5.29232836301463 7.33616596784575  5.52434276076672 7.56810798539832  C 5.52434276076672 7.56810798539832  7.03643691257764 9.0797304178786  7.03643691257764 9.0797304178786  C 7.03643691257764 9.0797304178786  10.4766506480762 5.64059028748098  10.4766506480762 5.64059028748098  C 10.7086650458283 5.40864826992841  11.0926884737202 5.40864826992841  11.3247028714723 5.64059028748098  Z " fill-rule="nonzero" fill="#5bb59a" stroke="none" />
  </g>
</svg>