<?xml version="1.0" encoding="utf-8"?>
<svg version="1.1" xmlns:xlink="http://www.w3.org/1999/xlink" width="10px" height="6px" xmlns="http://www.w3.org/2000/svg">
  <g transform="matrix(1 0 0 1 -11 -4 )">
    <path d="M 0.656731620620087 2.74223462092598  L 0.656731620620087 4.60914873001226  L 0 4.60914873001226  L 0 0.000204515411932174  C 0 0.000204515411932174  1.73601708283561 0.000204515411932174  1.73601708283561 0.000204515411932174  C 1.94402286169858 -0.00297978287534811  2.15067268387132 0.0310484065029025  2.34408737898961 0.100333011349395  C 2.5375020741079 0.169617616195887  2.71386671021294 0.272792062197588  2.86304101839451 0.40392465478472  C 3.00434469464579 0.523170646595863  3.11827665946935 0.666431727813709  3.19832390548626 0.825519224311969  C 3.27837115150318 0.984606720810228  3.32296418112271 1.15640124076368  3.3295545656029 1.33108285361459  C 3.3361449500831 1.5057644664655  3.30460268998182 1.67990859518378  3.23673173874503 1.84356017749756  C 3.16886078750824 2.00721175981134  3.06599106312511 2.15716244334274  2.93400334785778 2.28484096186518  C 2.93400334785778 2.28484096186518  2.86304101839451 2.35251614834416  2.86304101839451 2.35251614834416  C 2.55983476366029 2.61330072669287  2.15469975623195 2.75506995930713  1.73601708283561 2.74573538776195  C 1.73601708283561 2.74573538776195  0.656731620620087 2.74223462092598  0.656731620620087 2.74223462092598  Z M 0.656731620620087 0.56494629783614  L 0.656731620620087 2.19149478348464  C 0.656731620620087 2.19149478348464  1.75214482905598 2.19149478348464  1.75214482905598 2.19149478348464  C 1.9953549557659 2.19849571187185  2.23017798075991 2.11273472789077  2.40048957867294 1.955797254858  C 2.52231308857907 1.84096509046383  2.60411551091407 1.69627566772315  2.63572063844563 1.53972844576134  C 2.6673257659772 1.38318122379954  2.64733947827596 1.22168540265913  2.57824670099181 1.07533054065761  C 2.50915392370765 0.928975678656088  2.39400392517806 0.804221704615287  2.24712279629304 0.716587066691778  C 2.10024166740802 0.628952428768269  1.92811194703991 0.582305279359374  1.75214482905598 0.582448462864581  C 1.75214482905598 0.582448462864581  0.656731620620087 0.56494629783614  0.656731620620087 0.56494629783614  Z M 4.83968722483656 1.35138362913014  C 5.2590150096198 1.33388130870545  5.66931106195186 1.4610647836599  5.98670995945854 1.70901433550666  C 6.27378821803354 1.95988093804082  6.42668134467145 2.30992743781646  6.406037513529 2.67105866761104  C 6.406037513529 2.67105866761104  6.406037513529 4.6161497073004  6.406037513529 4.6161497073004  L 5.78091662003192 4.6161497073004  L 5.78091662003192 4.16925723597989  C 5.78091662003192 4.16925723597989  5.74930589290891 4.16925723597989  5.74930589290891 4.16925723597989  C 5.63719591978603 4.33687463504701  5.47867095718611 4.47514124150367  5.28939011599377 4.57039771148218  C 5.10010927480144 4.66565418146068  4.88662189485207 4.71460455862348  4.67002043069339 4.71241272772441  C 4.3164297154124 4.72276557398222  3.97161790982711 4.61166553210738  3.70492241406041 4.40145455415437  C 3.57856222571327 4.30824157753166  3.47729606570571 4.19026250639494  3.40878441065743 4.05644096308922  C 3.34027275560915 3.92261941978351  3.30630923426876 3.77646025708826  3.30946348142756 3.62901914266265  C 3.30201792938425 3.48001304233163  3.33401664210498 3.33155219811937  3.40279941350965 3.19598340974801  C 3.47158218491433 3.06041462137665  3.57516174042585 2.9416555697078  3.70492241406041 2.849582197499  C 4.02323314615452 2.6425640453386  4.40849272817925 2.5368930791698  4.8003356224963 2.54912604624495  C 5.1338625161622 2.53745783262849  5.46480875279378 2.60338287258728  5.76156381675474 2.74223462092598  C 5.76156381675474 2.74223462092598  5.76156381675474 2.6208850897767  5.76156381675474 2.6208850897767  C 5.76374221734414 2.52055400838359  5.74065378391878 2.42108956429863  5.69404679814957 2.3300198823749  C 5.64743981238037 2.23895020045117  5.57853575334429 2.15866178030713  5.49254902308211 2.09523204125252  C 5.31987173476816 1.95326207471066  5.09365829551489 1.87644238722526  4.86033078921736 1.88053688810649  C 4.69087242484547 1.87909227113513  4.52380569644929 1.91674616289916  4.37491602054783 1.98993974641696  C 4.22602634464638 2.06313332993476  4.10023200823294 2.1694493361785  4.00941898769876 2.29884236005765  C 4.00941898769876 2.29884236005765  3.43203656754507 1.96979920943427  3.43203656754507 1.96979920943427  C 3.58881593802034 1.76665576618082  3.80047691869362 1.60317962732579  4.04687320813074 1.49493176091855  C 4.29326949756786 1.3866838945113  4.56620056378821 1.337266500935  4.83968722483656 1.35138362913014  Z M 4.00941898769876 3.64302109723892  C 4.00786540208012 3.71858265018676  4.02688182552226 3.79333004846659  4.06479374646548 3.86068010685907  C 4.1027056674087 3.92803016525155  4.15834967279698 3.9859160396685  4.22682425518532 4.02923880298478  C 4.3706859497793 4.13191908454836  4.54938400533506 4.18617600814918  4.73324311540758 4.18267554395557  C 5.00999945720973 4.182092133234  5.27514360178703 4.08349564671409  5.47255022401903 3.9073056252349  C 5.66931173486413 3.74045015900058  5.78091662003192 3.50766948980441  5.78091662003192 3.2638038123974  C 5.53256753916703 3.10413179994887  5.23080095141029 3.0270435624691  4.92677853098836 3.0456084487992  C 4.69072394194504 3.03720116637256  4.4578851237691 3.09730433616319  4.26230480468287 3.21713100139903  C 4.18484480543407 3.26399567787159  4.12128356413379 3.32733188794097  4.07719317415013 3.40158502615421  C 4.03310278416647 3.47583816436746  4.0098311359166 3.55874038429707  4.00941898769876 3.64302109723892  Z M 10 1.45523099525099  L 7.81304463597092 6  L 7.13695898160549 6  L 7.96335739636874 4.4084555314425  L 6.52861059964651 1.45523099525099  L 7.24017803397766 1.45523099525099  L 8.28011066338476 3.7217811180588  L 9.29230361851156 1.45523099525099  L 10 1.45523099525099  Z " fill-rule="nonzero" fill="#5f6368" stroke="none" transform="matrix(1 0 0 1 11 4 )" />
  </g>
</svg>