<?xml version="1.0" encoding="utf-8"?>
<svg version="1.1" xmlns:xlink="http://www.w3.org/1999/xlink" width="4px" height="3px" xmlns="http://www.w3.org/2000/svg">
  <g transform="matrix(1 0 0 1 -11 -4 )">
    <path d="M 3.63076899601863 0.180000114440918  C 3.56923053356317 0.120000113546848  3.5076925433599 0.119999885559082  3.44615408090445 0.119999885559082  C 3.38461561844899 0.119999885559082  3.32307762824572 0.119999943673611  3.26153916579026 0.059999942779541  C 3.07692377383892 0  2.83076970393841 0  2.58461585411659 0  C 2.58461585411659 0  0.73846200796274 0  0.73846200796274 0  C 0.676923545507284 0  0.615384615384615 0  0.615384615384615 0.059999942779541  C 0.492307690473703 0.119999943673611  0.430769700270433 0.179999998211861  0.430769700270433 0.3  C 0.430769700270433 0.3  0 2.93999977111816  0 2.93999977111816  C 0 2.93999977111816  0 3  0 3  C 0 2.81999999284744  0.184615612030029 2.7  0.36923100398137 2.7  C 0.36923100398137 2.7  1.16923053448017 2.7  1.16923053448017 2.7  C 2.70769207294171 2.7  3.69230769230769 2.09999985694885  4 0.419999885559082  C 4 0.419999885559082  4 0.3  4 0.3  C 3.93846153754454 0.23999999910593  3.8153846172186 0.180000114440918  3.69230769230769 0.180000114440918  C 3.69230769230769 0.180000114440918  3.63076899601863 0.180000114440918  3.63076899601863 0.180000114440918  Z " fill-rule="nonzero" fill="#012169" stroke="none" transform="matrix(1 0 0 1 11 4 )" />
  </g>
</svg>