<?xml version="1.0" encoding="utf-8"?>
<svg version="1.1" xmlns:xlink="http://www.w3.org/1999/xlink" width="4px" height="2px" xmlns="http://www.w3.org/2000/svg">
  <g transform="matrix(1 0 0 1 -4 -7 )">
    <path d="M 2.29510035964002 1.99910832190759  C 2.92173368056514 2.01561727222852  3.53138040309959 1.80234773566067  4 1.40269220935316  C 4 1.40269220935316  3.16964052945806 0.7828982908207  3.16964052945806 0.7828982908207  C 2.97012338617592 0.905686708143935  2.74406252643891 0.983188059465946  2.50864940901428 1.00950870533306  C 2.27323629158964 1.03582935120017  2.03466963090764 1.01027611527004  1.8110918592173 0.93479232902779  C 1.58751408752697 0.859308542785544  1.38481277996544 0.735881941768715  1.21840202559242 0.573898486227695  C 1.05199127121941 0.411915030686676  0.926253454824404 0.215640061609914  0.850750437860358 0  C 0.850750437860358 0  0 0  0 0  C 0 0  0 0.636104666856997  0 0.636104666856997  C 0.212885194394874 1.0455135623149  0.540383489982199 1.38990265944709  0.945769190957487 1.63065122378897  C 1.35115489193278 1.87139978813086  1.81839745438362 1.99898784136242  2.29510035964002 1.99910832190759  Z " fill-rule="nonzero" fill="#34a853" stroke="none" transform="matrix(1 0 0 1 4 7 )" />
  </g>
</svg>