<?xml version="1.0" encoding="utf-8"?>
<svg version="1.1" xmlns:xlink="http://www.w3.org/1999/xlink" width="23px" height="13px" xmlns="http://www.w3.org/2000/svg">
  <g transform="matrix(1 0 0 1 -1 0 )">
    <path d="M 1.27777777777778 0  C 1.27777777777778 0  21.7222222222222 0  21.7222222222222 0  C 22.4250000152323 0  23 0.531818167729811  23 1.18181818181818  C 23 1.18181818181818  23 11.8181818181818  23 11.8181818181818  C 23 12.4681818322702  22.4250000152323 13  21.7222222222222 13  C 21.7222222222222 13  1.27777777777778 13  1.27777777777778 13  C 0.574999984767702 13  0 12.4681818322702  0 11.8181818181818  C 0 11.8181818181818  0 1.18181818181818  0 1.18181818181818  C 0 0.531818167729811  0.574999984767702 0  1.27777777777778 0  Z " fill-rule="nonzero" fill="#ffffff" stroke="none" transform="matrix(1 0 0 1 1 0 )" />
  </g>
</svg>